# Blender v2.83.0 OBJ File: ''
# www.blender.org
mtllib axe.mtl
o Cube
v -0.160651 1.585226 -0.166317
v -0.160651 -0.163508 -0.166317
v 0.166317 1.585226 -0.160651
v 0.166317 -0.163508 -0.160651
v -0.166317 1.585226 0.160651
v -0.166317 -0.163508 0.160651
v 0.160651 1.585226 0.166317
v 0.160651 -0.163508 0.166317
v 0.166317 2.289533 -0.160651
v 0.160651 2.289533 0.166317
v -0.160651 2.289533 -0.166317
v -0.166317 2.289533 0.160651
v -0.032334 1.701657 -0.988730
v 0.066571 1.701657 -0.987016
v -0.032334 2.173101 -0.988730
v 0.066571 2.173101 -0.987016
v 0.066083 1.779474 0.418101
v -0.080529 1.779474 0.415560
v 0.066083 2.095284 0.418101
v -0.080529 2.095284 0.415560
vt 0.625000 0.500000
vt 0.625000 0.250000
vt 0.625000 0.250000
vt 0.625000 0.500000
vt 0.875000 0.500000
vt 0.875000 0.750000
vt 0.625000 0.750000
vt 0.625000 1.000000
vt 0.625000 0.750000
vt 0.625000 1.000000
vt 0.625000 0.250000
vt 0.625000 0.250000
vt 0.625000 0.500000
vt 0.625000 0.500000
vt 0.625000 0.750000
vt 0.625000 0.750000
vt 0.625000 0.000000
vt 0.625000 0.000000
vt 0.875000 0.500000
vt 0.875000 0.750000
vt 0.625000 1.000000
vt 0.625000 1.000000
vt 0.625000 0.000000
vt 0.375000 0.750000
vt 0.375000 1.000000
vt 0.375000 0.000000
vt 0.375000 0.250000
vt 0.125000 0.500000
vt 0.375000 0.500000
vt 0.125000 0.750000
vn -0.9998 0.0000 -0.0173
vn 0.0000 1.0000 -0.0000
vn 0.9998 0.0000 0.0173
vn -0.9478 0.0000 0.3190
vn -0.9880 0.0000 -0.1542
vn 0.0173 0.0000 -0.9998
vn 0.0024 0.9902 -0.1398
vn 0.0024 -0.9902 -0.1398
vn 0.9928 0.0000 -0.1198
vn -0.0173 0.0000 0.9998
vn -0.0105 0.7936 0.6083
vn 0.9361 0.0000 0.3516
vn -0.0105 -0.7936 0.6083
vn 0.0000 -1.0000 0.0000
usemtl Material
s off
f 1/1/1 5/2/1 12/3/1 11/4/1
f 11/4/2 12/5/2 10/6/2 9/7/2
f 7/8/3 3/9/3 9/7/3 10/10/3
f 12/3/4 5/2/4 18/11/4 20/12/4
f 1/1/5 11/4/5 15/13/5 13/14/5
f 14/15/6 13/14/6 15/13/6 16/16/6
f 11/4/7 9/7/7 16/16/7 15/13/7
f 3/9/8 1/1/8 13/14/8 14/15/8
f 9/7/9 3/9/9 14/15/9 16/16/9
f 18/11/10 17/17/10 19/18/10 20/12/10
f 10/6/11 12/5/11 20/19/11 19/20/11
f 7/8/12 10/10/12 19/21/12 17/22/12
f 5/2/13 7/23/13 17/17/13 18/11/13
usemtl Material.001
f 4/24/3 3/9/3 7/8/3 8/25/3
f 8/26/10 7/23/10 5/2/10 6/27/10
f 6/28/14 2/29/14 4/24/14 8/30/14
f 2/29/6 1/1/6 3/9/6 4/24/6
f 6/27/1 5/2/1 1/1/1 2/29/1
