# Blender v2.83.0 OBJ File: ''
# www.blender.org
mtllib axe.mtl
o Cube.003
v 0.151682 1.585226 -0.174535
v -0.174535 1.585226 -0.151682
v -0.174536 2.289533 -0.151682
v 0.151682 2.289533 -0.174535
v -0.151683 2.289533 0.174535
v 0.174535 2.289533 0.151682
v -0.151683 1.585226 0.174535
v 0.174535 1.585226 0.151682
v -0.420998 1.779474 -0.044004
v -0.420998 2.095284 -0.044004
v 0.982149 2.173101 -0.118384
v 0.982149 1.701657 -0.118384
v 0.989062 1.701657 -0.019706
v 0.989062 2.173101 -0.019706
v -0.410751 1.779474 0.102271
v -0.410751 2.095284 0.102271
v 0.174535 -0.163508 0.151682
v -0.151682 -0.163508 0.174535
v -0.174535 -0.163508 -0.151682
v 0.151682 -0.163508 -0.174535
v -0.174536 2.380649 -0.151682
v 0.151682 2.380649 -0.174535
v 0.174535 2.380649 0.151682
v -0.151683 2.380649 0.174535
vt 0.625000 0.500000
vt 0.625000 0.250000
vt 0.625000 0.250000
vt 0.625000 0.500000
vt 0.625000 1.000000
vt 0.625000 0.750000
vt 0.625000 0.750000
vt 0.625000 1.000000
vt 0.625000 0.250000
vt 0.625000 0.250000
vt 0.625000 0.500000
vt 0.625000 0.500000
vt 0.625000 0.750000
vt 0.625000 0.750000
vt 0.625000 0.000000
vt 0.625000 0.000000
vt 0.875000 0.750000
vt 0.875000 0.500000
vt 0.875000 0.500000
vt 0.875000 0.750000
vt 0.625000 1.000000
vt 0.625000 1.000000
vt 0.625000 0.000000
vt 0.625000 0.750000
vt 0.625000 1.000000
vt 0.375000 0.750000
vt 0.375000 1.000000
vt 0.375000 0.000000
vt 0.375000 0.250000
vt 0.125000 0.500000
vt 0.375000 0.500000
vt 0.125000 0.750000
vt 0.625000 0.500000
vt 0.875000 0.500000
vt 0.875000 0.750000
vt 0.625000 0.250000
vn -0.0699 -0.0000 -0.9976
vn 0.0699 0.0000 0.9976
vn -0.4004 -0.0000 -0.9164
vn 0.0675 0.0000 -0.9977
vn 0.9976 0.0000 -0.0699
vn 0.1395 0.9902 -0.0098
vn 0.1395 -0.9902 -0.0098
vn 0.2059 0.0000 0.9786
vn -0.9976 -0.0000 0.0699
vn -0.6069 0.7936 0.0425
vn -0.2687 -0.0000 0.9632
vn -0.6069 -0.7936 0.0425
vn -0.6560 -0.0000 0.7548
vn 0.7548 0.0000 0.6560
vn 0.0000 -1.0000 -0.0000
vn 0.0000 1.0000 0.0000
vn 0.6560 0.0000 -0.7548
vn -0.7548 -0.0000 -0.6560
usemtl Material.002
s 1
f 1/1/1 2/2/1 3/3/1 4/4/1
f 7/5/2 8/6/2 6/7/2 5/8/2
f 3/3/3 2/2/3 9/9/3 10/10/3
f 1/1/4 4/4/4 11/11/4 12/12/4
f 13/13/5 12/12/5 11/11/5 14/14/5
f 4/4/6 6/7/6 14/14/6 11/11/6
f 8/6/7 1/1/7 12/12/7 13/13/7
f 6/7/8 8/6/8 13/13/8 14/14/8
f 9/9/9 15/15/9 16/16/9 10/10/9
f 5/17/10 3/18/10 10/19/10 16/20/10
f 7/5/11 5/8/11 16/21/11 15/22/11
f 2/2/12 7/23/12 15/15/12 9/9/12
usemtl Material.003
f 5/8/13 6/7/14 23/24/14 24/25/13
f 17/26/2 8/6/2 7/5/2 18/27/2
f 18/28/9 7/23/9 2/2/9 19/29/9
f 19/30/15 20/31/15 17/26/15 18/32/15
f 20/31/5 1/1/5 8/6/5 17/26/5
f 19/29/1 2/2/1 1/1/1 20/31/1
f 22/33/16 21/34/16 24/35/16 23/24/16
f 6/7/14 4/4/17 22/33/17 23/24/14
f 3/18/18 5/17/13 24/35/13 21/34/18
f 4/4/17 3/3/18 21/36/18 22/33/17
