# Blender v2.83.0 OBJ File: ''
# www.blender.org
mtllib gold_nugget.mtl
o Cube.012
v -0.008700 0.455345 -0.125426
v 0.076544 0.166381 0.174170
v 0.205175 0.208703 -0.014930
v -0.177567 -0.143705 0.154957
v 0.204582 -0.098639 0.228239
v -0.197343 0.367958 0.083730
v -0.222388 -0.037095 -0.229431
v 0.244550 0.012405 -0.203209
vt 0.875000 0.500000
vt 0.625000 0.750000
vt 0.625000 0.500000
vt 0.375000 1.000000
vt 0.375000 0.750000
vt 0.625000 0.000000
vt 0.375000 0.250000
vt 0.375000 0.000000
vt 0.375000 0.500000
vt 0.125000 0.750000
vt 0.125000 0.500000
vt 0.625000 0.250000
vt 0.875000 0.750000
vt 0.625000 1.000000
vn 0.5241 0.6826 0.5093
vn -0.1990 0.1027 0.9746
vn -0.9937 -0.0232 0.1094
vn 0.1167 -0.9535 -0.2780
vn 0.9895 0.0887 0.1145
vn 0.0347 0.1921 -0.9808
vn 0.3337 0.7242 0.6035
vn -0.2264 0.1257 0.9659
vn -0.7521 0.4316 -0.4981
vn 0.1577 -0.9597 -0.2324
vn 0.6889 0.4489 0.5691
vn 0.7777 0.5093 -0.3684
usemtl Material.011
s 1
f 1/1/1 2/2/1 3/3/1
f 2/2/2 4/4/2 5/5/2
f 6/6/3 7/7/3 4/8/3
f 8/9/4 4/10/4 7/11/4
f 3/3/5 5/5/5 8/9/5
f 1/12/6 8/9/6 7/7/6
f 1/1/7 6/13/7 2/2/7
f 2/2/8 6/14/8 4/4/8
f 6/6/9 1/12/9 7/7/9
f 8/9/10 5/5/10 4/10/10
f 3/3/11 2/2/11 5/5/11
f 1/12/12 3/3/12 8/9/12
