# Blender v2.83.0 OBJ File: ''
# www.blender.org
mtllib crystal.mtl
o Cube_Cube.010
v -0.275082 -0.004686 0.275082
v -0.237240 0.178110 0.109531
v -0.275082 -0.004686 -0.275082
v -0.210036 0.320086 -0.094324
v 0.275082 -0.004686 0.275082
v 0.370670 0.444122 0.123892
v 0.275082 -0.004686 -0.275082
v 0.352839 0.444387 -0.128766
v -0.135988 0.556898 0.165280
v -0.078324 0.917525 -0.044998
v 0.196107 0.811594 -0.254514
v 0.339785 0.781291 0.053252
v -0.507653 0.445266 0.365051
v -0.471211 1.084327 -0.405910
v 0.558158 0.787694 -0.386089
v 0.489881 0.956841 0.445131
v -0.250551 0.555128 0.051204
v 0.051191 0.516030 -0.219948
v 0.432586 0.675443 0.042361
v 0.043759 0.561296 0.220283
v -0.172527 0.730996 0.056737
v 0.048039 0.799031 -0.112726
v 0.249097 0.773799 -0.057625
v 0.152176 0.738417 0.180574
v -0.069016 1.105719 0.284036
vt 0.625000 0.000000
vt 0.375000 0.250000
vt 0.375000 0.000000
vt 0.625000 0.250000
vt 0.375000 0.500000
vt 0.625000 0.500000
vt 0.375000 0.750000
vt 0.625000 0.750000
vt 0.375000 1.000000
vt 0.125000 0.750000
vt 0.125000 0.500000
vt 0.625000 0.000000
vt 0.625000 0.125000
vt 0.811851 0.625000
vt 0.750000 0.686851
vt 0.750000 0.625000
vt 0.625000 0.750000
vt 0.625000 0.875000
vt 0.625000 0.250000
vt 0.625000 0.375000
vt 0.625000 0.500000
vt 0.625000 0.625000
vt 0.811851 0.563149
vt 0.875000 0.625000
vt 0.688149 0.563149
vt 0.750000 0.500000
vt 0.750000 0.563149
vt 0.688149 0.686851
vt 0.688149 0.625000
vt 0.811851 0.686851
vt 0.750000 0.750000
vt 0.875000 0.500000
vt 0.875000 0.750000
vt 0.625000 1.000000
vt 0.625000 1.000000
vn -0.9792 0.2027 0.0000
vn 0.0000 0.4863 -0.8738
vn 0.9853 -0.1706 0.0000
vn 0.0000 0.3192 0.9477
vn 0.0000 -1.0000 0.0000
vn -0.7449 -0.1276 -0.6549
vn -0.3136 -0.4276 0.8478
vn 0.0545 -0.5392 0.8404
vn -0.1258 -0.4111 -0.9029
vn 0.8942 -0.4211 0.1518
vn -0.9087 0.4062 -0.0967
vn -0.6802 0.2531 -0.6879
vn 0.6067 0.5871 -0.5359
vn -0.2801 0.3700 0.8858
vn -0.6302 0.7695 -0.1033
vn 0.1696 0.9400 0.2960
vn 0.6982 0.4631 -0.5460
vn -0.1934 0.9646 0.1792
vn 0.4209 0.8145 -0.3993
vn 0.0773 0.9828 0.1678
vn 0.4721 0.7594 -0.4477
vn -0.9810 0.1941 0.0043
vn -0.1296 0.3274 -0.9360
vn 0.9708 -0.2299 -0.0688
vn -0.3102 0.6726 0.6718
vn -0.9524 -0.2614 0.1571
vn -0.9828 -0.0616 -0.1741
vn -0.3273 0.4495 0.8312
vn 0.3153 -0.4696 0.8247
vn 0.1392 -0.3678 0.9194
vn 0.0841 -0.6293 -0.7726
vn 0.0889 -0.6189 -0.7804
vn 0.9684 -0.2470 0.0348
vn 0.9575 -0.2802 -0.0679
vn -0.5011 0.4365 0.7472
vn -0.3378 0.0557 -0.9396
vn 0.6221 0.5975 -0.5059
vn -0.1176 0.9439 0.3087
vn 0.5800 -0.1768 0.7952
vn 0.4506 0.8913 0.0498
vn -0.1684 0.3476 -0.9224
vn -0.6795 0.2801 0.6781
vn 0.5445 0.0931 0.8336
vn 0.2498 0.8004 -0.5450
vn -0.9141 0.3626 -0.1815
usemtl Material.009
s off
f 2/1/1 3/2/1 1/3/1
f 4/4/2 7/5/2 3/2/2
f 8/6/3 5/7/3 7/5/3
f 6/8/4 1/9/4 5/7/4
f 7/5/5 1/10/5 3/11/5
f 2/1/6 13/12/6 17/13/6
f 21/14/7 24/15/7 25/16/7
f 6/8/8 16/17/8 20/18/8
f 4/4/9 14/19/9 18/20/9
f 8/6/10 15/21/10 19/22/10
f 10/23/11 17/24/11 21/14/11
f 11/25/12 18/26/12 22/27/12
f 12/28/13 19/22/13 23/29/13
f 9/30/14 20/31/14 24/15/14
f 12/28/15 20/31/15 16/17/15
f 11/25/16 19/22/16 15/21/16
f 10/23/17 18/26/17 14/32/17
f 9/30/18 17/24/18 13/33/18
f 25/16/19 12/28/19 23/29/19
f 22/27/20 23/29/20 11/25/20
f 10/23/21 25/16/21 22/27/21
f 2/1/22 4/4/22 3/2/22
f 4/4/23 8/6/23 7/5/23
f 8/6/24 6/8/24 5/7/24
f 6/8/25 2/34/25 1/9/25
f 7/5/5 5/7/5 1/10/5
f 14/19/26 4/4/26 17/13/26
f 4/4/27 2/1/27 17/13/27
f 21/14/28 9/30/28 24/15/28
f 13/35/29 2/34/29 20/18/29
f 2/34/30 6/8/30 20/18/30
f 15/21/31 8/6/31 18/20/31
f 8/6/32 4/4/32 18/20/32
f 16/17/33 6/8/33 19/22/33
f 6/8/34 8/6/34 19/22/34
f 10/23/35 14/32/35 17/24/35
f 11/25/36 15/21/36 18/26/36
f 12/28/37 16/17/37 19/22/37
f 9/30/38 13/33/38 20/31/38
f 12/28/39 24/15/39 20/31/39
f 11/25/40 23/29/40 19/22/40
f 10/23/41 22/27/41 18/26/41
f 9/30/42 21/14/42 17/24/42
f 25/16/43 24/15/43 12/28/43
f 22/27/44 25/16/44 23/29/44
f 10/23/45 21/14/45 25/16/45
