# Blender v2.83.0 OBJ File: ''
# www.blender.org
mtllib planks.mtl
o Cube.010
v -0.249919 0.036822 -0.649057
v 0.260679 0.086603 -0.646818
v 0.260679 0.028532 0.644103
v -0.249919 -0.021249 0.641864
v 0.249919 0.196743 -0.641863
v 0.249919 0.138673 0.649057
v -0.260679 0.146963 -0.644103
v -0.260679 0.088892 0.646818
vt 0.375000 0.000000
vt 0.375000 0.250000
vt 0.625000 0.250000
vt 0.625000 0.000000
vt 0.375000 0.500000
vt 0.625000 0.500000
vt 0.375000 0.750000
vt 0.625000 0.750000
vt 0.375000 1.000000
vt 0.625000 1.000000
vt 0.125000 0.500000
vt 0.125000 0.750000
vt 0.875000 0.750000
vt 0.875000 0.500000
vn 0.0971 -0.9943 -0.0447
vn 0.9953 0.0970 0.0044
vn -0.0971 0.9943 0.0447
vn -0.9953 -0.0970 -0.0044
vn 0.0000 0.0449 -0.9990
vn -0.0000 -0.0449 0.9990
usemtl Material.015
s 1
f 1/1/1 2/2/1 3/3/1 4/4/1
f 2/2/2 5/5/2 6/6/2 3/3/2
f 5/5/3 7/7/3 8/8/3 6/6/3
f 7/7/4 1/9/4 4/10/4 8/8/4
f 2/11/5 1/12/5 7/7/5 5/5/5
f 6/6/6 8/8/6 4/13/6 3/14/6
o Cube.011
v -0.462368 0.056891 0.503038
v -0.685276 0.068058 0.041106
v 0.472496 0.213654 -0.514065
v 0.695404 0.202487 -0.052133
v -0.695478 0.178102 0.048690
v 0.462293 0.323698 -0.506481
v -0.472570 0.166936 0.510621
v 0.685202 0.312532 -0.044550
vt 0.375000 0.000000
vt 0.375000 0.250000
vt 0.625000 0.250000
vt 0.625000 0.000000
vt 0.375000 0.500000
vt 0.625000 0.500000
vt 0.375000 0.750000
vt 0.625000 0.750000
vt 0.375000 1.000000
vt 0.625000 1.000000
vt 0.125000 0.500000
vt 0.125000 0.750000
vt 0.875000 0.750000
vt 0.875000 0.500000
vn 0.0921 -0.9934 -0.0685
vn -0.4345 0.0218 -0.9004
vn -0.0921 0.9934 0.0685
vn 0.4345 -0.0218 0.9004
vn -0.8960 -0.1127 0.4296
vn 0.8960 0.1127 -0.4296
usemtl Material.016
s 1
f 9/15/7 10/16/7 11/17/7 12/18/7
f 10/16/8 13/19/8 14/20/8 11/17/8
f 13/19/9 15/21/9 16/22/9 14/20/9
f 15/21/10 9/23/10 12/24/10 16/22/10
f 10/25/11 9/26/11 15/21/11 13/19/11
f 14/20/12 16/22/12 12/27/12 11/28/12
