# Blender v2.83.0 OBJ File: ''
# www.blender.org
mtllib player.mtl
o Cube
v -0.753276 1.000000 -0.299035
v -0.753276 1.000000 0.222991
v -0.376638 1.000000 -0.299035
v -0.376638 1.000000 0.222991
v -0.210175 0.001504 -0.656438
v -0.671291 0.001965 0.222991
v -0.253860 0.217899 -0.489643
v -0.294653 0.001965 0.222991
v -0.291845 4.357277 -0.619806
v -0.541207 4.322211 -0.601488
v -0.686931 4.357277 0.224720
v -0.291845 4.357277 0.619806
v -0.888614 1.252560 -0.343180
v -0.472829 1.071239 -0.652840
v -0.493211 1.136786 0.695133
v -0.851724 1.287901 0.375943
v -0.362565 2.000000 1.000000
v -1.000000 2.000000 0.362565
v -0.362565 2.000000 -1.000000
v -1.000000 2.000000 -0.362565
v -0.138267 1.288407 -0.488789
v 0.007084 1.699596 -1.000000
v -0.124795 1.491130 0.477898
v -0.697742 3.644872 -0.670410
v -0.691213 0.244481 -0.299035
v -0.671291 0.001965 -0.056518
v -0.294653 0.001965 -0.056518
v -0.314575 0.244481 -0.299035
v -0.586813 0.001504 -0.656438
v -0.630498 0.217899 -0.489643
v -0.843465 3.679939 0.293643
v -1.209760 3.289950 -1.020173
v -1.103601 3.749310 -0.973431
v -0.376469 3.525147 -2.347564
v -0.437147 3.262589 -2.374280
v -1.449694 3.636581 -1.196246
v -1.225939 3.979816 -0.457958
v -1.342249 3.476531 -0.406746
v -1.537617 3.180891 -1.199620
v -0.574287 3.460714 -2.474919
v -0.624542 3.200253 -2.476848
v -0.291845 4.357277 -0.350990
v -0.291845 4.357277 0.155922
v -0.291845 4.506847 -0.350990
v -0.291845 4.506847 0.155922
v -0.553651 4.664203 -0.272600
v -0.553651 4.664203 0.291643
v -0.148635 5.691208 -0.555412
v -0.312519 5.687727 -0.494614
v -0.288406 5.897505 0.229868
v -0.553651 5.289620 0.291643
v -0.370677 5.445791 -0.484603
v -0.137067 5.459325 -0.617612
v -0.379165 5.915038 -0.272600
v -0.553651 5.289620 -0.272600
v -0.327205 3.178638 -0.907480
v -0.234861 5.248940 -0.608958
v 0.753276 1.000000 -0.299035
v 0.753276 1.000000 0.222991
v 0.376638 1.000000 -0.299035
v 0.376638 1.000000 0.222991
v 0.210175 0.001504 -0.656438
v 0.671291 0.001965 0.222991
v 0.253860 0.217899 -0.489643
v 0.294653 0.001965 0.222991
v 0.291845 4.357277 -0.619806
v 0.541207 4.322211 -0.601488
v 0.686931 4.357277 0.224720
v 0.291845 4.357277 0.619806
v 0.888614 1.252560 -0.343180
v 0.472829 1.071239 -0.652840
v 0.493211 1.136786 0.695133
v 0.851724 1.287901 0.375943
v 0.362565 2.000000 1.000000
v 1.000000 2.000000 0.362565
v 0.362565 2.000000 -1.000000
v 1.000000 2.000000 -0.362565
v 0.000000 2.000000 -1.000000
v 0.000000 2.000000 1.000000
v 0.138267 1.288407 -0.488789
v -0.007084 1.699596 -1.000000
v 0.124795 1.491130 0.477898
v 0.697742 3.644872 -0.670410
v 0.000000 4.357277 -0.733029
v 0.000000 4.357277 0.710450
v 0.691213 0.244481 -0.299035
v 0.671291 0.001965 -0.056518
v 0.294653 0.001965 -0.056518
v 0.314575 0.244481 -0.299035
v 0.586813 0.001504 -0.656438
v 0.630498 0.217899 -0.489643
v 0.843465 3.679939 0.293643
v 1.209760 3.289950 -1.020173
v 1.103601 3.749310 -0.973431
v 0.376469 3.525147 -2.347564
v 0.437147 3.262589 -2.374280
v 1.449694 3.636581 -1.196246
v 1.225939 3.979816 -0.457958
v 1.342249 3.476531 -0.406746
v 1.537617 3.180891 -1.199620
v 0.574287 3.460714 -2.474919
v 0.624542 3.200253 -2.476848
v 0.000000 4.357277 -0.362279
v 0.291845 4.357277 -0.350990
v 0.000000 4.357277 0.195599
v 0.291845 4.357277 0.155922
v 0.000000 4.506847 -0.362279
v 0.291845 4.506847 -0.350990
v 0.000000 4.506847 0.195599
v 0.291845 4.506847 0.155922
v 0.000000 4.684797 -0.678011
v 0.553651 4.664203 -0.272600
v 0.000000 4.684797 0.535052
v 0.553651 4.664203 0.291643
v 0.148635 5.691208 -0.555412
v 0.312519 5.687727 -0.494614
v 0.000000 5.935632 0.352220
v 0.288406 5.897505 0.229868
v 0.553651 5.289620 0.291643
v 0.370677 5.445791 -0.484603
v 0.137067 5.459325 -0.617612
v 0.000000 5.310214 0.535052
v 0.000000 5.935632 -0.470728
v 0.379165 5.915038 -0.272600
v 0.553651 5.289620 -0.272600
v 0.000000 5.208259 -0.945316
v 0.327205 3.178638 -0.907480
v 0.000000 3.178638 -0.866514
v 0.000000 5.571945 -0.646160
v 0.234861 5.248940 -0.608958
v 0.000000 4.946528 -0.686762
vt 0.202920 0.618327
vt 0.155840 0.618327
vt 0.155840 0.530840
vt 0.202920 0.530841
vt 0.155840 0.530840
vt 0.202920 0.530841
vt 0.202920 0.530841
vt 0.155840 0.530840
vt 0.155840 0.618327
vt 0.202920 0.618327
vt 0.202920 0.719160
vt 0.155840 0.719160
vt 0.202920 0.719160
vt 0.155840 0.719160
vt 0.562500 0.134665
vt 0.625000 0.131862
vt 0.625000 0.170321
vt 0.562500 0.170321
vt 0.562500 0.134665
vt 0.625000 0.131862
vt 0.562500 0.170321
vt 0.875000 0.618138
vt 0.875000 0.579679
vt 0.875000 0.579679
vt 0.875000 0.618138
vt 0.625000 0.170321
vt 0.795321 0.687500
vt 0.750000 0.687500
vt 0.750000 0.687500
vt 0.795321 0.687500
vt 0.750000 0.687500
vt 0.795321 0.687500
vt 0.795321 0.625000
vt 0.795321 0.625000
vt 0.750000 0.625000
vt 0.750000 0.625000
vt 0.795321 0.625000
vt 0.795321 0.687500
vt 0.795321 0.687500
vt 0.795321 0.625000
vt 0.795321 0.625000
vt 0.750000 0.625000
vt 0.750000 0.687500
vt 0.750000 0.625000
vt 0.750000 0.687500
vt 0.772660 0.625000
vt 0.764442 0.625000
vt 0.780727 0.625000
vt 0.783521 0.625000
vt 0.750000 0.625000
vt 0.761695 0.625000
vt 0.750000 0.625000
vt 0.750000 0.625000
vt 0.202920 0.618327
vt 0.202920 0.530841
vt 0.155840 0.530840
vt 0.155840 0.618327
vt 0.155840 0.530840
vt 0.155840 0.530840
vt 0.202920 0.530841
vt 0.202920 0.530841
vt 0.155840 0.618327
vt 0.155840 0.719160
vt 0.202920 0.719160
vt 0.202920 0.618327
vt 0.202920 0.719160
vt 0.155840 0.719160
vt 0.562500 0.134665
vt 0.562500 0.170321
vt 0.625000 0.170321
vt 0.625000 0.131862
vt 0.562500 0.134665
vt 0.625000 0.131862
vt 0.562500 0.170321
vt 0.875000 0.618138
vt 0.875000 0.618138
vt 0.875000 0.579679
vt 0.875000 0.579679
vt 0.625000 0.170321
vt 0.795321 0.687500
vt 0.795321 0.687500
vt 0.795321 0.687500
vt 0.000000 0.000000
vt 0.000000 0.000000
vt 0.000000 0.000000
vt 0.000000 0.000000
vt 0.795321 0.625000
vt 0.795321 0.625000
vt 0.795321 0.625000
vt 0.795321 0.625000
vt 0.795321 0.687500
vt 0.795321 0.687500
vt 0.000000 0.000000
vt 0.000000 0.000000
vt 0.795321 0.625000
vt 0.000000 0.000000
vt 0.000000 0.000000
vt 0.000000 0.000000
vt 0.000000 0.000000
vt 0.000000 0.000000
vt 0.000000 0.000000
vt 0.772660 0.625000
vt 0.764442 0.625000
vt 0.780727 0.625000
vt 0.783521 0.625000
vt 0.761695 0.625000
vt 0.125000 0.579679
vt 0.133783 0.508783
vt 0.204679 0.500000
vt 0.500000 0.329679
vt 0.375000 0.329679
vt 0.375000 0.170321
vt 0.220104 0.500000
vt 0.404896 0.375000
vt 0.220104 0.750000
vt 0.375000 0.920321
vt 0.500000 0.920321
vt 0.500000 1.000000
vt 0.375000 1.000000
vt 0.375000 0.345104
vt 0.500000 0.079679
vt 0.500000 0.170321
vt 0.500000 0.875000
vt 0.125000 0.670321
vt 0.204679 0.750000
vt 0.500000 0.375000
vt 0.375000 0.079679
vt 0.125000 0.579679
vt 0.133783 0.508783
vt 0.204679 0.500000
vt 0.500000 0.329679
vt 0.375000 0.170321
vt 0.375000 0.329679
vt 0.220104 0.500000
vt 0.220104 0.750000
vt 0.404896 0.375000
vt 0.375000 0.920321
vt 0.375000 1.000000
vt 0.500000 1.000000
vt 0.500000 0.920321
vt 0.375000 0.345104
vt 0.500000 0.079679
vt 0.500000 0.170321
vt 0.125000 0.670321
vt 0.204679 0.750000
vt 0.375000 0.079679
vt 0.625000 0.875000
vt 0.625000 0.920321
vt 0.562500 0.170321
vt 0.562500 0.079679
vt 0.562500 0.079679
vt 0.795321 0.750000
vt 0.795321 0.500000
vt 0.875000 0.579679
vt 0.875000 0.670321
vt 0.625000 1.000000
vt 0.562500 1.000000
vt 0.562500 0.329679
vt 0.625000 0.329679
vt 0.625000 0.375000
vt 0.625000 1.000000
vt 0.562500 1.000000
vt 0.625000 0.170321
vt 0.577545 0.079679
vt 0.625000 0.079679
vt 0.875000 0.670321
vt 0.750000 0.500000
vt 0.750000 0.750000
vt 0.562500 0.375000
vt 0.625000 0.920321
vt 0.562500 0.170321
vt 0.562500 0.079679
vt 0.562500 0.079679
vt 0.795321 0.750000
vt 0.875000 0.670321
vt 0.875000 0.579679
vt 0.795321 0.500000
vt 0.562500 1.000000
vt 0.625000 1.000000
vt 0.562500 0.329679
vt 0.625000 0.329679
vt 0.562500 1.000000
vt 0.625000 1.000000
vt 0.625000 0.170321
vt 0.625000 0.079679
vt 0.577545 0.079679
vt 0.875000 0.670321
vn -0.0000 0.6105 -0.7920
vn -0.0000 -0.0000 -1.0000
vn 0.0000 -1.0000 0.0000
vn 0.9966 0.0819 -0.0000
vn 0.0000 0.0000 1.0000
vn -0.0000 0.9904 -0.1381
vn -0.9966 -0.0819 -0.0000
vn 0.0000 -1.0000 0.0008
vn -0.9713 -0.1631 -0.1728
vn 0.9713 0.1631 0.1728
vn 0.5272 -0.0654 -0.8472
vn -0.8042 0.1594 -0.5725
vn 0.2352 -0.9597 0.1536
vn -0.1577 0.9580 -0.2397
vn 0.8403 -0.2435 0.4844
vn -0.1347 0.0000 0.9909
vn -0.1512 -0.8450 0.5130
vn -1.0000 0.0000 0.0000
vn -0.0387 0.0000 -0.9993
vn -0.9371 0.3384 0.0853
vn -0.5152 -0.8571 0.0000
vn -0.3033 -0.6969 -0.6499
vn -0.0855 0.9962 0.0190
vn -0.3999 0.2603 0.8788
vn -0.4025 0.0000 0.9154
vn -0.6466 -0.0836 -0.7582
vn -0.2828 0.6265 -0.7263
vn -0.8137 0.2270 -0.5351
vn -0.1973 0.4259 -0.8830
vn -0.7555 0.3279 -0.5672
vn -0.5639 0.5246 -0.6378
vn -0.3712 0.2233 -0.9013
vn -0.8696 0.1902 -0.4557
vn -0.4190 0.5141 -0.7484
vn -0.6461 0.0359 -0.7624
vn -0.6609 -0.3413 -0.6684
vn -0.9966 0.0819 -0.0000
vn 0.9966 -0.0819 -0.0000
vn 0.9713 -0.1631 -0.1728
vn -0.9713 0.1631 0.1728
vn -0.5272 -0.0654 -0.8472
vn 0.8042 0.1594 -0.5725
vn -0.2352 -0.9597 0.1536
vn 0.1577 0.9580 -0.2397
vn -0.8403 -0.2435 0.4844
vn 0.1347 0.0000 0.9909
vn 0.1512 -0.8450 0.5130
vn 1.0000 0.0000 0.0000
vn 0.0387 0.0000 -0.9993
vn 0.9371 0.3384 0.0853
vn 0.5152 -0.8571 0.0000
vn 0.3033 -0.6969 -0.6499
vn 0.0855 0.9962 0.0190
vn 0.3999 0.2603 0.8788
vn 0.4025 0.0000 0.9154
vn 0.6466 -0.0836 -0.7582
vn 0.2828 0.6265 -0.7263
vn 0.8137 0.2270 -0.5351
vn 0.1973 0.4259 -0.8830
vn 0.7555 0.3279 -0.5672
vn 0.5639 0.5246 -0.6378
vn 0.3712 0.2233 -0.9013
vn 0.8696 0.1902 -0.4557
vn 0.4190 0.5141 -0.7484
vn 0.6461 0.0359 -0.7624
vn 0.6609 -0.3413 -0.6684
vn -0.6510 -0.4550 -0.6076
vn 0.0000 -0.9803 -0.1974
vn -0.6400 -0.2012 -0.7415
vn 0.9584 -0.2819 0.0458
vn -0.6969 -0.1380 0.7038
vn 0.6268 -0.6844 -0.3723
vn -0.2536 -0.3121 -0.9156
vn -0.9891 -0.1474 0.0000
vn -0.7018 -0.1228 -0.7018
vn 0.0000 -0.3330 0.9429
vn -0.9331 -0.3537 0.0652
vn 0.9583 -0.2820 0.0457
vn -0.6816 -0.5112 0.5235
vn -0.8814 -0.4723 0.0000
vn 0.8898 -0.4563 0.0000
vn 0.7483 -0.5645 0.3483
vn 0.8009 -0.5882 0.1122
vn 0.6204 -0.7190 -0.3134
vn -0.9775 -0.2024 0.0601
vn 0.0000 -0.9605 0.2783
vn 0.7482 -0.5556 0.3627
vn 0.6510 -0.4550 -0.6076
vn 0.6400 -0.2012 -0.7415
vn -0.9584 -0.2819 0.0458
vn 0.6969 -0.1380 0.7038
vn -0.6268 -0.6844 -0.3723
vn 0.2536 -0.3121 -0.9156
vn 0.9891 -0.1474 0.0000
vn 0.7018 -0.1228 -0.7018
vn 0.9331 -0.3537 0.0652
vn -0.9583 -0.2820 0.0457
vn 0.6816 -0.5112 0.5235
vn 0.8814 -0.4723 0.0000
vn -0.8898 -0.4563 0.0000
vn -0.7483 -0.5645 0.3483
vn -0.8009 -0.5882 0.1122
vn -0.6204 -0.7190 -0.3134
vn 0.9775 -0.2024 0.0601
vn -0.7482 -0.5556 0.3627
vn -0.4388 0.1409 -0.8875
vn 0.4388 0.1409 -0.8875
vn -0.2928 0.1608 0.9426
vn 0.2859 -0.9345 0.2122
vn -0.0427 0.9989 -0.0200
vn -0.6883 0.2291 0.6883
vn -0.7071 -0.0024 -0.7071
vn -0.3518 0.2319 -0.9069
vn -0.9766 0.1508 -0.1531
vn -0.8221 0.2424 0.5151
vn 0.5885 -0.0539 -0.8067
vn -0.9613 0.2134 0.1741
vn -0.4027 0.8671 -0.2932
vn 0.0000 1.0000 0.0000
vn 0.1235 0.1117 -0.9860
vn 0.0000 0.0783 -0.9969
vn -0.4607 0.0832 -0.8837
vn -0.2967 0.2348 -0.9256
vn -0.0897 0.1213 -0.9886
vn -0.9957 0.0928 0.0000
vn -0.6274 0.1423 0.7656
vn -0.7039 0.0945 0.7039
vn 0.0000 0.1219 0.9925
vn 0.2928 0.1608 0.9426
vn -0.2859 -0.9345 0.2122
vn 0.0427 0.9989 -0.0200
vn 0.6883 0.2291 0.6883
vn 0.7071 -0.0024 -0.7071
vn 0.3518 0.2319 -0.9069
vn 0.9766 0.1508 -0.1531
vn 0.8221 0.2424 0.5151
vn -0.5884 -0.0539 -0.8067
vn 0.9613 0.2134 0.1741
vn 0.4027 0.8671 -0.2932
vn -0.1235 0.1117 -0.9860
vn 0.4607 0.0832 -0.8837
vn 0.2967 0.2348 -0.9256
vn 0.0897 0.1213 -0.9886
vn 0.9957 0.0928 0.0000
vn 0.6274 0.1423 0.7656
vn 0.7039 0.0945 0.7039
usemtl Skin
s off
f 5/1/1 29/2/1 30/3/1 7/4/1
f 1/5/2 3/6/2 28/7/2 25/8/2
f 26/9/3 27/10/3 8/11/3 6/12/3
f 3/6/4 4/13/4 8/11/4 27/10/4 28/7/4
f 4/13/5 2/14/5 6/12/5 8/11/5
f 25/8/6 28/7/6 7/4/6 30/3/6
f 2/14/7 1/5/7 25/8/7 26/9/7 6/12/7
f 27/10/8 26/9/8 29/2/8 5/1/8
f 26/9/9 25/8/9 30/3/9 29/2/9
f 28/7/10 27/10/10 5/1/10 7/4/10
f 41/15/11 40/16/11 34/17/11 35/18/11
f 39/19/12 36/20/12 40/16/12 41/15/12
f 32/21/13 39/19/13 41/15/13 35/18/13
f 36/22/14 33/23/14 34/24/14 40/25/14
f 33/26/15 32/21/15 35/18/15 34/17/15
f 43/27/16 105/28/16 109/29/16 45/30/16
f 45/30/17 109/29/17 113/31/17 47/32/17
f 42/33/18 43/27/18 45/30/18 44/34/18
f 103/35/19 42/33/19 44/34/19 107/36/19
f 55/37/20 51/38/20 50/39/20 54/40/20
f 44/34/21 45/30/21 47/32/21 46/41/21
f 107/36/22 44/34/22 46/41/22 111/42/22
f 117/43/23 123/44/23 54/40/23 50/39/23
f 51/38/24 122/45/24 117/43/24 50/39/24
f 47/32/25 113/31/25 122/45/25 51/38/25
f 111/42/26 46/41/26 55/37/26 57/46/26
f 46/41/18 47/32/18 51/38/18 55/37/18
f 48/47/27 49/48/27 54/40/27
f 52/49/28 55/37/28 54/40/28
f 48/47/29 123/44/29 129/50/29
f 53/51/30 126/52/30 57/46/30
f 126/52/31 53/51/31 129/50/31
f 53/51/32 48/47/32 129/50/32
f 49/48/33 52/49/33 54/40/33
f 123/44/34 48/47/34 54/40/34
f 52/49/35 53/51/35 57/46/35 55/37/35
f 126/52/36 131/53/36 111/42/36 57/46/36
f 62/54/1 64/55/1 91/56/1 90/57/1
f 58/58/2 86/59/2 89/60/2 60/61/2
f 87/62/3 63/63/3 65/64/3 88/65/3
f 60/61/37 89/60/37 88/65/37 65/64/37 61/66/37
f 61/66/5 65/64/5 63/63/5 59/67/5
f 86/59/6 91/56/6 64/55/6 89/60/6
f 59/67/38 63/63/38 87/62/38 86/59/38 58/58/38
f 88/65/8 62/54/8 90/57/8 87/62/8
f 87/62/39 90/57/39 91/56/39 86/59/39
f 89/60/40 64/55/40 62/54/40 88/65/40
f 102/68/41 96/69/41 95/70/41 101/71/41
f 100/72/42 102/68/42 101/71/42 97/73/42
f 93/74/43 96/69/43 102/68/43 100/72/43
f 97/75/44 101/76/44 95/77/44 94/78/44
f 94/79/45 95/70/45 96/69/45 93/74/45
f 106/80/46 110/81/46 109/29/46 105/28/46
f 110/81/47 114/82/47 113/31/47 109/29/47
f 105/83/18 109/84/18 107/85/18 103/86/18
f 104/87/48 108/88/48 110/81/48 106/80/48
f 103/35/49 107/36/49 108/88/49 104/87/49
f 125/89/50 124/90/50 118/91/50 119/92/50
f 109/84/18 113/93/18 111/94/18 107/85/18
f 108/88/51 112/95/51 114/82/51 110/81/51
f 107/36/52 111/42/52 112/95/52 108/88/52
f 117/43/53 118/91/53 124/90/53 123/44/53
f 119/92/54 118/91/54 117/43/54 122/45/54
f 122/96/18 117/97/18 123/98/18 129/99/18 126/100/18
f 113/93/18 122/96/18 126/100/18 131/101/18 111/94/18
f 114/82/55 119/92/55 122/45/55 113/31/55
f 111/42/56 130/102/56 125/89/56 112/95/56
f 112/95/48 125/89/48 119/92/48 114/82/48
f 115/103/57 124/90/57 116/104/57
f 120/105/58 124/90/58 125/89/58
f 115/103/59 129/50/59 123/44/59
f 121/106/60 130/102/60 126/52/60
f 126/52/61 129/50/61 121/106/61
f 121/106/62 129/50/62 115/103/62
f 116/104/63 124/90/63 120/105/63
f 123/44/64 124/90/64 115/103/64
f 120/105/65 125/89/65 130/102/65 121/106/65
f 126/52/66 130/102/66 111/42/66 131/53/66
usemtl Clothes
f 13/107/67 14/108/67 1/5/67
f 3/6/68 1/5/68 14/109/68
f 19/110/69 14/111/69 13/112/69
f 21/113/70 22/114/70 23/115/70
f 15/116/71 17/117/71 18/118/71 16/119/71
f 21/120/72 14/111/72 22/114/72
f 14/111/73 19/110/73 22/114/73
f 18/121/74 20/122/74 13/112/74
f 20/122/75 19/110/75 13/112/75
f 15/116/76 79/123/76 17/117/76
f 16/124/77 13/107/77 2/14/77
f 23/115/78 22/114/78 79/123/78
f 15/125/79 16/124/79 2/14/79
f 19/110/2 78/126/2 22/114/2
f 13/107/80 1/5/80 2/14/80
f 4/13/81 3/6/81 23/115/81
f 4/13/82 23/115/82 15/125/82
f 23/115/83 3/6/83 21/113/83
f 21/113/84 3/6/84 14/109/84
f 16/127/85 18/121/85 13/112/85
f 2/14/86 4/13/86 15/125/86
f 15/116/87 23/115/87 79/123/87
f 70/128/88 58/58/88 71/129/88
f 60/61/68 71/130/68 58/58/68
f 76/131/89 70/132/89 71/133/89
f 80/134/90 82/135/90 81/136/90
f 72/137/91 73/138/91 75/139/91 74/140/91
f 80/141/92 81/136/92 71/133/92
f 71/133/93 81/136/93 76/131/93
f 75/142/94 70/132/94 77/143/94
f 77/143/95 70/132/95 76/131/95
f 72/137/76 74/140/76 79/123/76
f 73/144/96 59/67/96 70/128/96
f 82/135/97 79/123/97 81/136/97
f 72/145/98 59/67/98 73/144/98
f 76/131/2 81/136/2 78/126/2
f 70/128/99 59/67/99 58/58/99
f 61/66/100 82/135/100 60/61/100
f 61/66/101 72/145/101 82/135/101
f 82/135/102 80/134/102 60/61/102
f 80/134/103 71/130/103 60/61/103
f 73/146/104 70/132/104 75/142/104
f 59/67/86 72/145/86 61/66/86
f 72/137/105 79/123/105 82/135/105
usemtl Eye
f 53/51/106 52/49/106 49/48/106 48/47/106
f 121/106/107 115/103/107 116/104/107 120/105/107
usemtl Clothes2
f 85/147/108 12/148/108 17/117/108
f 24/149/109 31/150/109 38/151/109 39/19/109 32/21/109
f 12/152/110 43/27/110 42/33/110 9/153/110 10/154/110 11/155/110
f 12/148/111 11/156/111 31/157/111
f 24/149/112 19/110/112 20/122/112
f 56/158/113 9/159/113 84/160/113
f 31/150/114 24/149/114 20/122/114
f 31/157/115 11/156/115 37/161/115 38/162/115
f 10/163/116 24/149/116 32/21/116 33/26/116
f 36/20/117 39/19/117 38/164/117 37/165/117
f 11/155/118 10/154/118 33/23/118 36/22/118 37/166/118
f 103/35/119 84/167/119 9/153/119 42/33/119
f 85/168/119 105/28/119 43/27/119 12/152/119
f 56/158/120 128/169/120 78/126/120
f 128/169/120 56/158/120 84/160/120
f 19/110/121 56/158/121 78/126/121
f 56/158/122 19/110/122 24/149/122
f 9/159/123 56/158/123 24/149/123
f 10/163/124 9/159/124 24/149/124
f 18/121/125 31/150/125 20/122/125
f 17/117/126 12/148/126 31/157/126
f 18/118/127 17/117/127 31/157/127
f 79/123/128 85/147/128 17/117/128
f 85/147/129 74/140/129 69/170/129
f 83/171/130 93/74/130 100/72/130 99/172/130 92/173/130
f 69/174/131 68/175/131 67/176/131 66/177/131 104/87/131 106/80/131
f 69/170/132 92/178/132 68/179/132
f 83/171/133 77/143/133 76/131/133
f 127/180/134 84/160/134 66/181/134
f 92/173/135 77/143/135 83/171/135
f 92/178/136 99/182/136 98/183/136 68/179/136
f 67/184/137 94/79/137 93/74/137 83/171/137
f 97/73/138 98/185/138 99/186/138 100/72/138
f 68/175/139 98/187/139 97/75/139 94/78/139 67/176/139
f 103/35/119 104/87/119 66/177/119 84/167/119
f 85/168/119 69/174/119 106/80/119 105/28/119
f 127/180/140 78/126/140 128/169/140
f 128/169/140 84/160/140 127/180/140
f 76/131/121 78/126/121 127/180/121
f 127/180/141 83/171/141 76/131/141
f 66/181/142 83/171/142 127/180/142
f 67/184/143 83/171/143 66/181/143
f 75/142/144 77/143/144 92/173/144
f 74/140/145 92/178/145 69/170/145
f 75/139/146 92/178/146 74/140/146
f 79/123/128 74/140/128 85/147/128
