# Blender v2.83.0 OBJ File: ''
# www.blender.org
mtllib stick.mtl
o Cube
v 0.272989 0.235597 0.040112
v 0.242984 0.132007 0.027814
v -0.822941 0.200945 0.126156
v -0.852945 0.097355 0.113858
v -0.831137 0.200723 0.238662
v -0.844750 0.097576 0.232513
v -0.408339 0.005502 0.232513
v -0.394725 0.108648 0.238662
v 0.264793 0.235375 0.152618
v 0.251180 0.132229 0.146469
v -0.416534 0.005280 0.113858
v 0.885890 0.104701 -0.082944
v 0.855885 0.001111 -0.095241
v 0.864081 0.001333 0.023414
v 0.877694 0.104479 0.029563
v -0.386530 0.108870 0.126156
vt 0.375000 0.625000
vt 0.625000 0.625000
vt 0.625000 0.625000
vt 0.375000 0.625000
vt 0.625000 0.500000
vt 0.625000 0.500000
vt 0.375000 0.500000
vt 0.375000 0.500000
vt 0.375000 0.625000
vt 0.375000 0.500000
vt 0.625000 0.500000
vt 0.375000 0.500000
vt 0.625000 0.625000
vt 0.375000 0.625000
vt 0.625000 0.625000
vt 0.625000 0.500000
vn 0.1437 -0.0778 0.9866
vn -0.1902 0.9817 -0.0119
vn -0.1581 0.1614 -0.9741
vn 0.1873 -0.9822 -0.0111
vn -0.2064 -0.9783 0.0161
vn -0.1608 0.1622 -0.9736
vn 0.9785 -0.2064 -0.0000
vn -0.2057 -0.9785 0.0160
vn 0.1793 -0.0821 0.9804
vn 0.2122 0.9771 0.0174
vn -0.9785 0.2064 -0.0000
vn 0.0235 0.1112 -0.9935
vn 0.2064 0.9783 0.0170
vn -0.0122 -0.0579 0.9982
usemtl Material
s off
f 10/1/1 9/2/1 8/3/1 7/4/1
f 9/2/2 1/5/2 16/6/2 8/3/2
f 1/5/3 2/7/3 11/8/3 16/6/3
f 2/7/4 10/1/4 7/4/4 11/8/4
f 11/8/5 7/4/5 6/9/5 4/10/5
f 2/7/6 1/5/6 12/11/6 13/12/6
f 13/12/7 12/11/7 15/13/7 14/14/7
f 10/1/8 2/7/8 13/12/8 14/14/8
f 9/2/9 10/1/9 14/14/9 15/13/9
f 1/5/10 9/2/10 15/13/10 12/11/10
f 4/10/11 6/9/11 5/15/11 3/16/11
f 16/6/12 11/8/12 4/10/12 3/16/12
f 8/3/13 16/6/13 3/16/13 5/15/13
f 7/4/14 8/3/14 5/15/14 6/9/14
