# Blender v2.83.0 OBJ File: ''
# www.blender.org
mtllib eyes.mtl
o Eyes_Cube.025
v 0.217475 2.228436 -0.058199
v 0.193670 2.227074 -0.122369
v 0.189750 2.132342 -0.145141
v 0.241830 2.137641 -0.053669
v 0.217475 2.228436 0.058200
v 0.193670 2.227074 0.122370
v 0.189750 2.132342 0.145142
v 0.241830 2.137641 0.053670
vt 0.761695 0.625000
vt 0.783521 0.625000
vt 0.780727 0.625000
vt 0.764442 0.625000
vt 0.761695 0.625000
vt 0.764442 0.625000
vt 0.780727 0.625000
vt 0.783521 0.625000
vn 0.8875 0.1409 -0.4387
vn 0.8875 0.1409 0.4387
usemtl Eye.001
s 1
f 4/1/1 3/2/1 2/3/1 1/4/1
f 8/5/2 5/6/2 6/7/2 7/8/2
