# Blender v2.83.0 OBJ File: ''
# www.blender.org
mtllib shirt.mtl
o Shirt_Cube.022
v 0.469720 1.245503 -0.602066
v 0.468399 1.423932 -0.567639
v 0.399456 1.288206 -0.473691
v 0.381154 1.468072 -0.432123
v -0.061053 1.706126 -0.114274
v -0.076589 1.706126 0.000000
v 0.137432 1.706126 -0.114274
v 0.141853 1.706126 0.000000
v 0.469721 1.245502 0.602066
v 0.468399 1.423931 0.567639
v 0.399456 1.288205 0.473691
v 0.381154 1.468071 0.432124
v -0.061053 1.706126 0.114274
v 0.137432 1.706126 0.114274
v 0.391558 0.783116 -0.141965
v -0.391558 0.783116 -0.141965
v -0.141965 0.783116 -0.391558
v 0.141965 0.783116 -0.391558
v -0.391558 0.783116 0.000000
v 0.391558 0.783116 0.000000
v 0.391558 0.783116 0.141965
v -0.141965 0.783115 0.391558
v -0.391558 0.783116 0.141965
v 0.141965 0.783115 0.391558
v -0.278183 1.706126 0.000000
v -0.242690 1.706126 -0.114274
v 0.262504 1.427178 -0.273206
v -0.114979 1.440909 -0.330265
v 0.159264 1.361263 -0.525568
v 0.242689 1.706126 -0.114274
v 0.235517 1.692395 -0.211914
v -0.087991 1.706126 -0.268973
v 0.355330 1.244620 -0.128119
v 0.287023 1.706126 0.000000
v 0.179317 1.558328 -0.480026
v 0.339290 1.244620 0.000000
v -0.242690 1.706126 0.114274
v 0.262504 1.427178 0.273207
v 0.159265 1.361263 0.525568
v -0.114979 1.440909 0.330265
v -0.087991 1.706126 0.268973
v 0.235517 1.692395 0.211914
v 0.242689 1.706126 0.114274
v 0.355331 1.244620 0.128120
v 0.179317 1.558328 0.480026
vt 0.625000 0.875000
vt 0.625000 0.920321
vt 0.500000 0.920321
vt 0.562500 0.170321
vt 0.562500 0.079679
vt 0.562500 0.079679
vt 0.562500 0.134665
vt 0.562500 0.170321
vt 0.795321 0.750000
vt 0.795321 0.687500
vt 0.795321 0.625000
vt 0.795321 0.500000
vt 0.875000 0.579679
vt 0.875000 0.670321
vt 0.625000 1.000000
vt 0.562500 1.000000
vt 0.500000 0.329679
vt 0.500000 0.170321
vt 0.562500 0.329679
vt 0.625000 0.329679
vt 0.625000 0.375000
vt 0.625000 1.000000
vt 0.562500 1.000000
vt 0.625000 0.170321
vt 0.625000 0.170321
vt 0.625000 0.131862
vt 0.577545 0.079679
vt 0.625000 0.079679
vt 0.875000 0.579679
vt 0.875000 0.618138
vt 0.875000 0.670321
vt 0.750000 0.625000
vt 0.750000 0.500000
vt 0.750000 0.750000
vt 0.750000 0.687500
vt 0.562500 0.375000
vt 0.500000 0.375000
vt 0.500000 0.079679
vt 0.500000 1.000000
vt 0.500000 0.875000
vt 0.500000 0.920321
vt 0.625000 0.920321
vt 0.562500 0.170321
vt 0.562500 0.170321
vt 0.562500 0.134665
vt 0.562500 0.079679
vt 0.562500 0.079679
vt 0.795321 0.750000
vt 0.875000 0.670321
vt 0.875000 0.579679
vt 0.795321 0.500000
vt 0.795321 0.625000
vt 0.795321 0.687500
vt 0.562500 1.000000
vt 0.625000 1.000000
vt 0.500000 0.170321
vt 0.500000 0.329679
vt 0.562500 0.329679
vt 0.625000 0.329679
vt 0.562500 1.000000
vt 0.625000 1.000000
vt 0.625000 0.170321
vt 0.625000 0.170321
vt 0.625000 0.131862
vt 0.625000 0.079679
vt 0.577545 0.079679
vt 0.875000 0.670321
vt 0.875000 0.618138
vt 0.875000 0.579679
vt 0.500000 0.079679
vt 0.500000 1.000000
vn -0.9426 0.1608 -0.2928
vn -0.2122 -0.9345 0.2859
vn 0.0200 0.9989 -0.0427
vn -0.6883 0.2291 -0.6883
vn 0.7071 -0.0024 -0.7071
vn 0.9069 0.2319 -0.3518
vn 0.1531 0.1508 -0.9766
vn -0.5151 0.2424 -0.8221
vn 0.8067 -0.0539 0.5885
vn -0.1741 0.2134 -0.9613
vn 0.2932 0.8671 -0.4027
vn 0.0000 1.0000 -0.0000
vn 0.9860 0.1117 0.1234
vn 0.9969 0.0783 0.0000
vn 0.8837 0.0832 -0.4607
vn 0.9256 0.2348 -0.2967
vn 0.9886 0.1213 -0.0897
vn 0.0000 0.0928 -0.9957
vn -0.7656 0.1423 -0.6274
vn -0.7039 0.0945 -0.7039
vn -0.9925 0.1219 0.0000
vn -0.9426 0.1608 0.2928
vn -0.2122 -0.9345 -0.2859
vn 0.0200 0.9989 0.0427
vn -0.6883 0.2291 0.6883
vn 0.7071 -0.0024 0.7071
vn 0.9069 0.2319 0.3518
vn 0.1531 0.1508 0.9766
vn -0.5151 0.2424 0.8221
vn 0.8067 -0.0539 -0.5885
vn -0.1741 0.2134 0.9613
vn 0.2932 0.8671 0.4027
vn 0.9860 0.1117 -0.1235
vn 0.8837 0.0832 0.4607
vn 0.9256 0.2348 0.2967
vn 0.9886 0.1213 0.0897
vn 0.0000 0.0928 0.9957
vn -0.7656 0.1423 0.6274
vn -0.7039 0.0945 0.7039
usemtl Clothes2.001
s 1
f 25/1/1 26/2/1 16/3/1
f 27/4/2 28/5/2 29/6/2 1/7/2 3/8/2
f 26/9/3 5/10/3 7/11/3 30/12/3 31/13/3 32/14/3
f 26/2/4 32/15/4 28/16/4
f 27/4/5 15/17/5 18/18/5
f 33/19/6 30/20/6 34/21/6
f 28/5/7 27/4/7 18/18/7
f 28/16/8 32/15/8 35/22/8 29/23/8
f 31/24/9 27/4/9 3/8/9 4/25/9
f 2/26/10 1/7/10 29/27/10 35/28/10
f 32/14/11 31/13/11 4/29/11 2/30/11 35/31/11
f 8/32/12 34/33/12 30/12/12 7/11/12
f 25/34/12 6/35/12 5/10/12 26/9/12
f 33/19/13 36/36/13 20/37/13
f 36/36/13 33/19/13 34/21/13
f 15/17/14 33/19/14 20/37/14
f 33/19/15 15/17/15 27/4/15
f 30/20/16 33/19/16 27/4/16
f 31/24/17 30/20/17 27/4/17
f 17/38/18 28/5/18 18/18/18
f 16/3/19 26/2/19 28/16/19
f 17/39/20 16/3/20 28/16/20
f 19/40/21 25/1/21 16/3/21
f 25/1/22 23/41/22 37/42/22
f 38/43/23 11/44/23 9/45/23 39/46/23 40/47/23
f 37/48/24 41/49/24 42/50/24 43/51/24 14/52/24 13/53/24
f 37/42/25 40/54/25 41/55/25
f 38/43/26 24/56/26 21/57/26
f 44/58/27 34/21/27 43/59/27
f 40/47/28 24/56/28 38/43/28
f 40/54/29 39/60/29 45/61/29 41/55/29
f 42/62/30 12/63/30 11/44/30 38/43/30
f 10/64/31 45/65/31 39/66/31 9/45/31
f 41/49/32 45/67/32 10/68/32 12/69/32 42/50/32
f 8/32/12 14/52/12 43/51/12 34/33/12
f 25/34/12 37/48/12 13/53/12 6/35/12
f 44/58/33 20/37/33 36/36/33
f 36/36/33 34/21/33 44/58/33
f 21/57/14 20/37/14 44/58/14
f 44/58/34 38/43/34 21/57/34
f 43/59/35 38/43/35 44/58/35
f 42/62/36 38/43/36 43/59/36
f 22/70/37 24/56/37 40/47/37
f 23/41/38 40/54/38 37/42/38
f 22/71/39 40/54/39 23/41/39
f 19/40/21 23/41/21 25/1/21
