# Blender v2.83.0 OBJ File: ''
# www.blender.org
mtllib log.mtl
o Cube.012
v -0.343898 -0.000000 0.113922
v -0.343898 1.118653 0.113922
v -0.343898 1.118653 -0.113921
v -0.343898 0.000000 -0.113922
v 0.113922 -0.000000 0.343898
v 0.113922 1.118653 0.343899
v -0.113922 1.118653 0.343899
v -0.113922 -0.000000 0.343898
v 0.343898 0.000000 -0.113922
v 0.343898 1.118653 -0.113921
v 0.343898 1.118653 0.113922
v 0.343898 -0.000000 0.113922
v 0.113922 0.000000 -0.343898
v 0.113922 1.118653 -0.343898
v -0.113922 1.118653 -0.343898
v -0.113922 0.000000 -0.343898
vt 0.375000 0.083592
vt 0.625000 0.083592
vt 0.625000 0.166408
vt 0.375000 0.166408
vt 0.375000 0.833592
vt 0.625000 0.833592
vt 0.625000 0.916408
vt 0.375000 0.916408
vt 0.375000 0.583592
vt 0.625000 0.583592
vt 0.625000 0.666408
vt 0.375000 0.666408
vt 0.375000 0.416408
vt 0.625000 0.416408
vt 0.625000 1.000000
vt 0.375000 1.000000
vt 0.625000 0.333592
vt 0.375000 0.333592
vt 0.125000 0.583592
vt 0.208592 0.500000
vt 0.291408 0.500000
vt 0.291408 0.750000
vt 0.208592 0.750000
vt 0.125000 0.666408
vt 0.708592 0.500000
vt 0.791408 0.500000
vt 0.875000 0.583592
vt 0.875000 0.666408
vt 0.791408 0.750000
vt 0.708592 0.750000
vn -1.0000 -0.0000 0.0000
vn 0.0000 -0.0000 1.0000
vn 1.0000 0.0000 0.0000
vn 0.7071 0.0000 -0.7071
vn -0.7071 -0.0000 0.7071
vn 0.7071 -0.0000 0.7071
vn -0.7071 0.0000 -0.7071
vn 0.0000 0.0000 -1.0000
vn 0.0000 -1.0000 -0.0000
vn 0.0000 1.0000 0.0000
usemtl Material.017
s 1
f 1/1/1 2/2/1 3/3/1 4/4/1
f 5/5/2 6/6/2 7/7/2 8/8/2
f 9/9/3 10/10/3 11/11/3 12/12/3
f 10/10/4 9/9/4 13/13/4 14/14/4
f 8/8/5 7/7/5 2/15/5 1/16/5
f 6/6/6 5/5/6 12/12/6 11/11/6
f 15/17/7 16/18/7 4/4/7 3/3/7
f 16/18/8 15/17/8 14/14/8 13/13/8
usemtl Material.018
f 4/19/9 16/20/9 13/21/9 9/9/9 12/12/9 5/22/9 8/23/9 1/24/9
f 10/10/10 14/25/10 15/26/10 3/27/10 2/28/10 7/29/10 6/30/10 11/11/10
