# Blender v2.83.0 OBJ File: ''
# www.blender.org
mtllib pebble.mtl
o Cube.008
v 0.087244 0.151055 -0.215881
v -0.136713 0.166789 -0.148748
v -0.186839 0.231027 0.169617
v 0.168679 0.220791 0.202332
v 0.247368 -0.000000 0.219985
v -0.249649 -0.000000 0.247368
v -0.217704 0.000000 -0.199449
v 0.192603 0.000000 -0.247368
vt 0.625000 0.500000
vt 0.875000 0.500000
vt 0.875000 0.750000
vt 0.625000 0.750000
vt 0.375000 0.750000
vt 0.625000 1.000000
vt 0.375000 1.000000
vt 0.375000 0.000000
vt 0.625000 0.000000
vt 0.625000 0.250000
vt 0.375000 0.250000
vt 0.125000 0.500000
vt 0.375000 0.500000
vt 0.125000 0.750000
vn 0.0334 0.9831 -0.1802
vn -0.0036 0.2065 0.9784
vn -0.9355 0.3294 -0.1280
vn 0.0000 -1.0000 -0.0000
vn 0.8806 0.4422 -0.1703
vn -0.1679 0.2347 -0.9575
usemtl Material.012
s 1
f 1/1/1 2/2/1 3/3/1 4/4/1
f 5/5/2 4/4/2 3/6/2 6/7/2
f 6/8/3 3/9/3 2/10/3 7/11/3
f 7/12/4 8/13/4 5/5/4 6/14/4
f 8/13/5 1/1/5 4/4/5 5/5/5
f 7/11/6 2/10/6 1/1/6 8/13/6
