# Blender v2.83.0 OBJ File: ''
# www.blender.org
mtllib pickaxe.mtl
o Cube.009
v 0.068282 0.940432 -0.078570
v -0.078570 0.940432 -0.068282
v -0.078570 1.030668 -0.068282
v 0.068282 1.030668 -0.078570
v -0.068282 0.940432 0.078570
v 0.078570 0.940432 0.068282
v 0.078570 1.030668 0.068282
v -0.068282 1.030668 0.078570
v -0.427313 0.801058 -0.019808
v -0.427313 0.943224 -0.019808
v 0.677024 0.813274 -0.053292
v 0.677024 0.766026 -0.053292
v 0.680135 0.766026 -0.008871
v 0.680135 0.813274 -0.008871
v -0.422701 0.801058 0.046039
v -0.422701 0.943224 0.046039
v 0.078570 1.071684 0.068282
v -0.068282 1.071684 0.078570
v 0.078570 -0.073606 0.068282
v -0.068282 -0.073606 0.078570
v -0.078570 -0.073606 -0.068282
v 0.068282 -0.073606 -0.078570
v 0.068282 1.071684 -0.078570
v -0.078570 1.071684 -0.068282
v 0.372653 0.924985 -0.065931
v 0.372653 0.993727 -0.065931
v 0.379353 0.993727 0.029706
v 0.379353 0.924985 0.029706
vt 0.625000 0.500000
vt 0.625000 0.250000
vt 0.625000 0.250000
vt 0.625000 0.500000
vt 0.625000 1.000000
vt 0.625000 0.750000
vt 0.625000 0.750000
vt 0.625000 1.000000
vt 0.625000 0.250000
vt 0.625000 0.250000
vt 0.625000 0.500000
vt 0.625000 0.500000
vt 0.625000 0.500000
vt 0.625000 0.500000
vt 0.625000 0.750000
vt 0.625000 0.750000
vt 0.625000 0.750000
vt 0.625000 0.750000
vt 0.625000 0.000000
vt 0.625000 0.000000
vt 0.875000 0.750000
vt 0.875000 0.500000
vt 0.875000 0.500000
vt 0.875000 0.750000
vt 0.625000 1.000000
vt 0.625000 1.000000
vt 0.625000 0.000000
vt 0.625000 0.750000
vt 0.625000 1.000000
vt 0.375000 0.750000
vt 0.375000 1.000000
vt 0.375000 0.000000
vt 0.375000 0.250000
vt 0.125000 0.500000
vt 0.375000 0.500000
vt 0.125000 0.750000
vt 0.625000 0.500000
vt 0.875000 0.500000
vt 0.875000 0.750000
vt 0.625000 0.250000
vn -0.0699 0.0000 -0.9976
vn 0.0699 -0.0000 0.9976
vn -0.1377 0.0000 -0.9905
vn 0.0415 0.0000 -0.9991
vn 0.9976 -0.0000 -0.0699
vn 0.3097 0.9506 -0.0217
vn 0.3160 0.9485 -0.0221
vn 0.5108 0.8590 -0.0358
vn -0.2561 -0.9665 0.0179
vn -0.2493 -0.9683 0.0175
vn -0.4637 -0.8854 0.0325
vn 0.1272 -0.0000 0.9919
vn -0.9976 0.0000 0.0699
vn -0.2410 0.9704 0.0169
vn -0.0914 -0.0000 0.9958
vn 0.3679 -0.9295 -0.0258
vn -0.0508 -0.9987 0.0036
vn 0.1208 0.9926 -0.0085
vn -0.6560 0.0000 0.7548
vn 0.7548 0.0000 0.6560
vn 0.0000 -1.0000 -0.0000
vn 0.0000 1.0000 0.0000
vn 0.6560 0.0000 -0.7548
vn -0.7548 0.0000 -0.6560
usemtl Material.013
s 1
f 1/1/1 2/2/1 3/3/1 4/4/1
f 5/5/2 6/6/2 7/7/2 8/8/2
f 3/3/3 2/2/3 9/9/3 10/10/3
f 25/11/4 26/12/4 11/13/4 12/14/4
f 13/15/5 12/14/5 11/13/5 14/16/5
f 26/12/6 27/17/7 14/16/8 11/13/8
f 28/18/9 25/11/10 12/14/11 13/15/11
f 27/17/12 28/18/12 13/15/12 14/16/12
f 9/9/13 15/19/13 16/20/13 10/10/13
f 8/21/14 3/22/14 10/23/14 16/24/14
f 5/5/15 8/8/15 16/25/15 15/26/15
f 2/2/16 5/27/16 15/19/16 9/9/16
f 7/7/12 6/6/12 28/18/12 27/17/12
f 6/6/17 1/1/17 25/11/10 28/18/9
f 4/4/18 7/7/18 27/17/7 26/12/6
f 1/1/4 4/4/4 26/12/4 25/11/4
usemtl Material.014
f 8/8/19 7/7/20 17/28/20 18/29/19
f 19/30/2 6/6/2 5/5/2 20/31/2
f 20/32/13 5/27/13 2/2/13 21/33/13
f 21/34/21 22/35/21 19/30/21 20/36/21
f 22/35/5 1/1/5 6/6/5 19/30/5
f 21/33/1 2/2/1 1/1/1 22/35/1
f 23/37/22 24/38/22 18/39/22 17/28/22
f 7/7/20 4/4/23 23/37/23 17/28/20
f 3/22/24 8/21/19 18/39/19 24/38/24
f 4/4/23 3/3/24 24/40/24 23/37/23
