# Blender v2.83.0 OBJ File: ''
# www.blender.org
mtllib planks.mtl
o Cube.001
v -0.386804 0.056990 -1.004557
v -0.386804 -0.032887 0.993423
v 0.403458 0.134036 -1.001091
v 0.403458 0.044159 0.996889
v -0.403458 0.227457 -0.996889
v -0.403458 0.137580 1.001091
v 0.386804 0.304503 -0.993423
v 0.386804 0.214626 1.004557
vt 0.375000 0.000000
vt 0.375000 0.250000
vt 0.625000 0.250000
vt 0.625000 0.000000
vt 0.375000 0.500000
vt 0.625000 0.500000
vt 0.375000 0.750000
vt 0.625000 0.750000
vt 0.375000 1.000000
vt 0.625000 1.000000
vt 0.125000 0.500000
vt 0.125000 0.750000
vt 0.875000 0.750000
vt 0.875000 0.500000
vn 0.0971 -0.9943 -0.0447
vn 0.9953 0.0970 0.0044
vn -0.0971 0.9943 0.0447
vn -0.9953 -0.0970 -0.0044
vn -0.0000 0.0449 -0.9990
vn 0.0000 -0.0449 0.9990
usemtl Material.002
s off
f 1/1/1 3/2/1 4/3/1 2/4/1
f 3/2/2 7/5/2 8/6/2 4/3/2
f 7/5/3 5/7/3 6/8/3 8/6/3
f 5/7/4 1/9/4 2/10/4 6/8/4
f 3/11/5 1/12/5 5/7/5 7/5/5
f 8/6/6 6/8/6 2/13/6 4/14/6
o Cube.002
v -0.715614 0.088052 0.778561
v 1.076289 0.313393 -0.080687
v -1.060613 0.105334 0.063621
v 0.731290 0.330675 -0.795627
v -0.731404 0.258370 0.790297
v 1.060498 0.483711 -0.068951
v -1.076403 0.275651 0.075358
v 0.715499 0.500992 -0.783890
vt 0.375000 0.000000
vt 0.375000 0.250000
vt 0.625000 0.250000
vt 0.625000 0.000000
vt 0.375000 0.500000
vt 0.625000 0.500000
vt 0.375000 0.750000
vt 0.625000 0.750000
vt 0.375000 1.000000
vt 0.625000 1.000000
vt 0.125000 0.500000
vt 0.125000 0.750000
vt 0.875000 0.750000
vt 0.875000 0.500000
vn 0.0921 -0.9934 -0.0685
vn -0.4345 0.0218 -0.9004
vn -0.0921 0.9934 0.0685
vn 0.4345 -0.0218 0.9004
vn -0.8960 -0.1127 0.4296
vn 0.8960 0.1127 -0.4296
usemtl Material.003
s off
f 9/15/7 11/16/7 12/17/7 10/18/7
f 11/16/8 15/19/8 16/20/8 12/17/8
f 15/19/9 13/21/9 14/22/9 16/20/9
f 13/21/10 9/23/10 10/24/10 14/22/10
f 11/25/11 9/26/11 13/21/11 15/19/11
f 16/20/12 14/22/12 10/27/12 12/28/12
