# Blender v2.83.0 OBJ File: ''
# www.blender.org
mtllib sharp_stone.mtl
o Cube.008
v -0.169907 0.151055 -0.263210
v -0.228550 0.166789 0.041977
v -0.054424 0.231027 0.308190
v 0.489282 0.220791 -0.026218
v 0.567971 -0.000000 -0.008565
v -0.117234 -0.000000 0.385941
v -0.309541 0.000000 -0.008724
v -0.064548 0.000000 -0.294697
vt 0.625000 0.500000
vt 0.875000 0.500000
vt 0.875000 0.750000
vt 0.625000 0.750000
vt 0.375000 0.750000
vt 0.625000 1.000000
vt 0.375000 1.000000
vt 0.375000 0.000000
vt 0.625000 0.000000
vt 0.625000 0.250000
vt 0.375000 0.250000
vt 0.125000 0.500000
vt 0.375000 0.500000
vt 0.125000 0.750000
vn -0.0859 0.9889 -0.1210
vn 0.5015 0.1956 0.8428
vn -0.8382 0.3324 0.4324
vn -0.0000 -1.0000 -0.0000
vn 0.3572 0.2106 -0.9100
vn -0.8879 0.0502 -0.4574
usemtl Material.012
s 1
f 1/1/1 2/2/1 3/3/1 4/4/1
f 5/5/2 4/4/2 3/6/2 6/7/2
f 6/8/3 3/9/3 2/10/3 7/11/3
f 7/12/4 8/13/4 5/5/4 6/14/4
f 8/13/5 1/1/5 4/4/5 5/5/5
f 7/11/6 2/10/6 1/1/6 8/13/6
