# Blender v2.83.0 OBJ File: ''
# www.blender.org
mtllib stick.mtl
o Cube.002
v 0.173828 0.132229 -0.233084
v 0.181472 0.235375 -0.245918
v 0.192684 0.108648 0.419095
v 0.185040 0.005502 0.431929
v 0.070605 0.235597 -0.266734
v 0.081817 0.108870 0.398280
v 0.055005 0.132007 -0.238305
v 0.066217 0.005280 0.426708
v 0.135886 0.097576 0.865563
v 0.017063 0.097355 0.860342
v 0.017365 0.104701 -0.889595
v 0.001767 0.001111 -0.861166
v 0.128233 0.104479 -0.868779
v 0.120590 0.001333 -0.855945
v 0.143529 0.200723 0.852730
v 0.032662 0.200945 0.831914
vt 0.375000 0.625000
vt 0.625000 0.625000
vt 0.625000 0.625000
vt 0.375000 0.625000
vt 0.625000 0.500000
vt 0.625000 0.500000
vt 0.375000 0.500000
vt 0.375000 0.500000
vt 0.375000 0.625000
vt 0.375000 0.500000
vt 0.625000 0.500000
vt 0.375000 0.500000
vt 0.625000 0.625000
vt 0.375000 0.625000
vt 0.625000 0.625000
vt 0.625000 0.500000
vn 0.9965 -0.0778 -0.0316
vn -0.0333 0.9817 0.1876
vn -0.9857 0.1615 0.0476
vn -0.9855 0.1621 0.0499
vn -0.9857 0.1614 0.0474
vn 0.0101 -0.9822 -0.1873
vn -0.0073 -0.9783 0.2069
vn -0.9855 0.1622 0.0502
vn 0.1102 -0.2064 -0.9722
vn -0.0072 -0.9785 0.2062
vn 0.9943 -0.0821 -0.0677
vn 0.0412 0.9771 -0.2089
vn -0.1102 0.2064 0.9722
vn -0.9846 0.1112 -0.1352
vn 0.0401 0.9783 -0.2032
vn 0.9905 -0.0579 0.1246
usemtl Material.001
s 1
f 1/1/1 2/2/1 3/3/1 4/4/1
f 2/2/2 5/5/2 6/6/2 3/3/2
f 5/5/3 7/7/4 8/8/5 6/6/5
f 7/7/6 1/1/6 4/4/6 8/8/6
f 8/8/7 4/4/7 9/9/7 10/10/7
f 7/7/4 5/5/3 11/11/8 12/12/8
f 12/12/9 11/11/9 13/13/9 14/14/9
f 1/1/10 7/7/10 12/12/10 14/14/10
f 2/2/11 1/1/11 14/14/11 13/13/11
f 5/5/12 2/2/12 13/13/12 11/11/12
f 10/10/13 9/9/13 15/15/13 16/16/13
f 6/6/14 8/8/14 10/10/14 16/16/14
f 3/3/15 6/6/15 16/16/15 15/15/15
f 4/4/16 3/3/16 15/15/16 9/9/16
