# Blender v2.83.0 OBJ File: ''
# www.blender.org
mtllib torch.mtl
o Cube.019
v 0.037530 0.464089 -0.077187
v 0.019480 0.465234 -0.193862
v 0.013426 0.931532 -0.005851
v 0.031475 0.930387 0.110824
v -0.100467 0.434064 -0.167722
v -0.106521 0.900363 0.020290
v -0.092240 0.442872 -0.047351
v -0.098294 0.909170 0.140660
v 0.006107 1.256980 0.108936
v -0.281543 1.209951 0.175069
v -0.075261 -0.031237 -0.057754
v -0.067032 -0.022429 0.062616
v 0.044687 -0.000068 -0.083895
v 0.062738 -0.001213 0.032780
v -0.033905 1.259520 -0.149690
v -0.299782 1.190429 -0.091746
v -0.201195 1.460208 0.008599
v -0.201195 1.460208 0.008599
v -0.201195 1.460208 0.008599
v -0.201195 1.460208 0.008599
v -0.154445 1.064849 0.112741
v -0.024675 1.086065 0.082905
v -0.162672 1.056041 -0.007630
v -0.042725 1.087211 -0.033770
vt 0.375000 0.625000
vt 0.625000 0.625000
vt 0.625000 0.625000
vt 0.375000 0.625000
vt 0.625000 0.500000
vt 0.625000 0.500000
vt 0.375000 0.500000
vt 0.375000 0.500000
vt 0.625000 0.500000
vt 0.375000 0.500000
vt 0.625000 0.625000
vt 0.375000 0.625000
vt 0.375000 0.500000
vt 0.375000 0.625000
vt 0.625000 0.625000
vt 0.625000 0.500000
vt 0.625000 0.625000
vt 0.375000 0.625000
vt 0.625000 0.500000
vt 0.375000 0.500000
vt 0.375000 0.625000
vt 0.375000 0.500000
vt 0.625000 0.500000
vt 0.625000 0.625000
vn 0.9856 0.0740 -0.1518
vn -0.2862 0.3551 -0.8899
vn -0.9966 -0.0407 0.0714
vn -0.9967 -0.0383 0.0709
vn -0.9966 -0.0416 0.0712
vn 0.2644 -0.3577 0.8956
vn -0.9968 -0.0373 0.0709
vn 0.2072 -0.9783 0.0087
vn 0.1810 0.2355 0.9549
vn 0.9881 0.0174 -0.1527
vn -0.1483 -0.2351 -0.9606
vn 0.0000 0.0000 1.0000
vn 0.9390 0.3132 -0.1422
vn 0.9879 0.0270 -0.1526
vn 0.9846 0.0868 -0.1515
vn -0.1507 -0.2269 -0.9622
vn -0.0877 -0.4200 -0.9033
vn -0.0900 -0.4134 -0.9061
vn -0.9420 -0.3240 0.0881
vn -0.8469 -0.5230 0.0962
vn -0.8357 -0.5407 0.0967
vn 0.1808 0.2364 0.9547
vn 0.2218 0.0146 0.9750
vn 0.2272 -0.0204 0.9736
vn 0.2493 -0.1895 0.9497
vn -0.7529 0.4528 -0.4776
vn -0.5755 0.5729 0.5835
vn -0.5617 0.5756 0.5942
vn -0.7449 0.4540 -0.4889
vn -0.7270 -0.6795 0.0994
vn -0.0363 -0.5565 -0.8300
vn 0.9764 -0.1526 -0.1526
vn 0.5126 0.7388 0.4375
vn 0.2919 0.7304 -0.6175
vn 0.2779 0.7270 -0.6279
vn 0.5049 0.7369 0.4495
usemtl Material.024
s 1
f 1/1/1 2/2/1 3/3/1 4/4/1
f 2/2/2 5/5/2 6/6/2 3/3/2
f 5/5/3 7/7/4 8/8/5 6/6/5
f 7/7/6 1/1/6 4/4/6 8/8/6
f 7/7/4 5/5/3 11/9/7 12/10/7
f 12/10/8 11/9/8 13/11/8 14/12/8
f 1/1/9 7/7/9 12/10/9 14/12/9
f 2/2/10 1/1/10 14/12/10 13/11/10
f 5/5/11 2/2/11 13/11/11 11/9/11
f 18/13/12 17/14/12 20/15/12 19/16/12
f 4/4/13 3/3/13 24/17/14 22/18/15
f 3/3/16 6/6/16 23/19/17 24/17/18
f 6/6/19 8/8/19 21/20/20 23/19/21
f 8/8/22 4/4/22 22/18/23 21/20/24
usemtl Material.029
f 21/20/24 22/18/23 9/21/25 10/22/25
f 16/23/26 10/22/27 18/13/28 19/16/29
f 23/19/21 21/20/20 10/22/30 16/23/30
f 24/17/18 23/19/17 16/23/31 15/24/31
f 22/18/15 24/17/14 15/24/32 9/21/32
f 9/21/33 15/24/34 20/15/35 17/14/36
f 10/22/27 9/21/33 17/14/36 18/13/28
f 15/24/34 16/23/26 19/16/29 20/15/35
