# Blender v2.92.0 OBJ File: ''
# www.blender.org
mtllib crab.mtl
o Cube
v 0.299030 0.145253 -0.215656
v 0.215656 0.145253 -0.299030
v 0.234335 0.053101 -0.348574
v 0.348574 0.053101 -0.234335
v 0.170298 0.165804 0.329678
v 0.380281 0.133132 0.100157
v 0.407997 0.081579 0.110607
v 0.198640 0.026111 0.404808
v 0.132128 0.188631 -0.350442
v 0.379207 0.135128 -0.103516
v 0.406740 0.083918 -0.113897
v 0.168394 0.009722 -0.446630
v 0.458737 0.285691 -0.587013
v 0.541065 0.261055 -0.506281
v 0.516336 0.161176 -0.479668
v 0.403531 0.194933 -0.590286
v 0.541871 -0.077587 -0.742934
v 0.574000 -0.087202 -0.711428
v 0.564350 -0.126180 -0.701042
v 0.520327 -0.113006 -0.744211
v 0.406740 0.083918 -0.039321
v 0.379207 0.135128 -0.039321
v 0.350442 0.188631 -0.132128
v 0.446630 0.009722 -0.168394
v 0.407997 0.081579 0.043072
v 0.380281 0.133132 0.043072
v 0.384147 0.074662 0.183463
v 0.355867 0.127240 0.172794
v 0.350442 0.188631 0.000000
v 0.446630 0.009722 0.000000
v 0.244398 0.158224 0.262578
v 0.296331 0.017858 0.314510
v 0.318922 0.121265 0.215275
v 0.132128 0.188631 0.350442
v 0.168394 0.009722 0.446630
v 0.338588 0.068106 0.234941
v 0.338061 -0.004593 0.289966
v 0.446630 0.009722 0.168394
v 0.350442 0.188631 0.132128
v 0.271835 0.174316 0.223739
v 0.379207 0.135128 -0.103516
v 0.406740 0.083918 -0.113897
v 0.406740 0.083918 -0.039321
v 0.379207 0.135128 -0.039321
v 0.407997 0.081579 0.110607
v 0.380281 0.133132 0.100157
v 0.380281 0.133132 0.043072
v 0.407997 0.081579 0.043072
v 0.338588 0.068106 0.234941
v 0.384147 0.074662 0.183463
v 0.355867 0.127240 0.172794
v 0.318922 0.121265 0.215275
v 0.682509 0.155265 0.109253
v 0.686165 0.234517 0.133222
v 0.687066 0.211081 0.210574
v 0.683575 0.127539 0.200765
v 0.491374 0.202228 0.416347
v 0.499471 0.111225 0.402911
v 0.570808 0.140478 0.329748
v 0.549496 0.227343 0.356472
v 0.687493 0.157383 -0.138709
v 0.699056 0.233325 -0.105061
v 0.698684 0.211826 -0.016480
v 0.687060 0.132406 -0.035805
v 0.647891 -0.061485 0.573315
v 0.643375 -0.010728 0.580809
v 0.687680 -0.045169 0.532509
v 0.675792 0.003280 0.547414
v 0.971366 0.010691 0.214316
v 0.969615 -0.027270 0.202835
v 0.971798 -0.000535 0.251367
v 0.970126 -0.040551 0.246669
v 0.932553 -0.032895 -0.132187
v 0.927620 -0.065292 -0.146542
v 0.932394 -0.042066 -0.094398
v 0.927436 -0.075948 -0.102642
v 0.503651 0.347252 0.571742
v 0.313446 0.340679 0.519945
v 0.251224 0.055641 0.643940
v 0.504612 0.068075 0.710318
v 0.217255 0.390214 0.860389
v 0.140289 0.387555 0.839429
v 0.115111 0.272216 0.889603
v 0.217643 0.277247 0.916463
v 0.150261 0.099177 0.398536
v 0.184469 0.095958 0.367243
v 0.304948 0.084861 0.256852
v 0.270365 0.088041 0.288544
v 0.328755 0.094685 0.225108
v 0.398536 0.099177 0.150261
v 0.394139 0.107356 0.105382
v 0.370007 0.100951 0.178128
v 0.398536 0.099177 0.000000
v 0.392973 0.109523 -0.039321
v 0.394139 0.107356 0.043072
v 0.328755 0.094685 0.225108
v 0.370007 0.100951 0.178128
v 0.394139 0.107356 0.105382
v 0.394139 0.107356 0.043072
v 0.392973 0.109523 -0.039321
v 0.398536 0.099177 -0.150261
v 0.323802 0.099177 -0.224995
v 0.392973 0.109523 -0.108706
v 0.392973 0.109523 -0.108706
v 0.150261 0.099177 -0.398536
v 0.224995 0.099177 -0.323802
v -0.299030 0.145253 -0.215656
v -0.215656 0.145253 -0.299030
v -0.234335 0.053101 -0.348574
v -0.348574 0.053101 -0.234335
v -0.170298 0.165804 0.329678
v -0.380281 0.133132 0.100157
v -0.407997 0.081579 0.110607
v -0.198640 0.026111 0.404808
v -0.132128 0.188631 -0.350442
v -0.379207 0.135128 -0.103516
v -0.406740 0.083918 -0.113897
v -0.168394 0.009722 -0.446630
v -0.458737 0.285691 -0.587013
v -0.541065 0.261055 -0.506281
v -0.516336 0.161176 -0.479668
v -0.403531 0.194933 -0.590286
v 0.000000 0.009722 -0.446630
v 0.000000 0.188631 -0.350442
v 0.000000 0.188631 0.350442
v 0.000000 0.009722 0.446630
v -0.541871 -0.077587 -0.742934
v -0.574000 -0.087202 -0.711428
v -0.564350 -0.126180 -0.701042
v -0.520327 -0.113006 -0.744211
v -0.406740 0.083918 -0.039321
v -0.379207 0.135128 -0.039321
v -0.350442 0.188631 -0.132128
v -0.446630 0.009722 -0.168394
v -0.407997 0.081579 0.043072
v -0.380281 0.133132 0.043072
v -0.384147 0.074662 0.183463
v -0.355867 0.127240 0.172794
v -0.350442 0.188631 0.000000
v -0.446630 0.009722 0.000000
v -0.244398 0.158224 0.262578
v -0.296331 0.017858 0.314510
v -0.318922 0.121265 0.215275
v -0.132128 0.188631 0.350442
v -0.168394 0.009722 0.446630
v -0.338588 0.068106 0.234941
v -0.338061 -0.004593 0.289966
v -0.446630 0.009722 0.168394
v -0.350442 0.188631 0.132128
v -0.271835 0.174316 0.223739
v -0.379207 0.135128 -0.103516
v -0.406740 0.083918 -0.113897
v -0.406740 0.083918 -0.039321
v -0.379207 0.135128 -0.039321
v -0.407997 0.081579 0.110607
v -0.380281 0.133132 0.100157
v -0.380281 0.133132 0.043072
v -0.407997 0.081579 0.043072
v -0.338588 0.068106 0.234941
v -0.384147 0.074662 0.183463
v -0.355867 0.127240 0.172794
v -0.318922 0.121265 0.215275
v -0.682509 0.155265 0.109253
v -0.686165 0.234517 0.133222
v -0.687066 0.211081 0.210574
v -0.683575 0.127539 0.200765
v -0.491374 0.202228 0.416347
v -0.499471 0.111225 0.402911
v -0.570808 0.140478 0.329748
v -0.549496 0.227343 0.356472
v -0.687493 0.157383 -0.138709
v -0.699056 0.233325 -0.105061
v -0.698684 0.211826 -0.016480
v -0.687060 0.132406 -0.035805
v -0.647891 -0.061485 0.573315
v -0.643375 -0.010728 0.580809
v -0.687680 -0.045169 0.532509
v -0.675792 0.003280 0.547414
v -0.971366 0.010691 0.214316
v -0.969615 -0.027270 0.202835
v -0.971798 -0.000535 0.251367
v -0.970126 -0.040551 0.246669
v -0.932553 -0.032895 -0.132187
v -0.927620 -0.065292 -0.146542
v -0.932394 -0.042066 -0.094398
v -0.927436 -0.075948 -0.102642
v -0.503651 0.347252 0.571742
v -0.313446 0.340679 0.519945
v -0.251224 0.055641 0.643940
v -0.504612 0.068075 0.710318
v -0.217255 0.390214 0.860389
v -0.140289 0.387555 0.839429
v -0.115111 0.272216 0.889603
v -0.217643 0.277247 0.916463
v -0.150261 0.099177 0.398536
v 0.000000 0.099177 0.398536
v -0.184469 0.095958 0.367243
v -0.304948 0.084861 0.256852
v -0.270365 0.088041 0.288544
v -0.328755 0.094685 0.225108
v -0.398536 0.099177 0.150261
v -0.394139 0.107356 0.105382
v -0.370007 0.100951 0.178128
v -0.398536 0.099177 0.000000
v -0.392973 0.109523 -0.039321
v -0.394139 0.107356 0.043072
v -0.328755 0.094685 0.225108
v -0.370007 0.100951 0.178128
v -0.394139 0.107356 0.105382
v -0.394139 0.107356 0.043072
v -0.392973 0.109523 -0.039321
v -0.398536 0.099177 -0.150261
v -0.323802 0.099177 -0.224995
v -0.392973 0.109523 -0.108706
v -0.392973 0.109523 -0.108706
v -0.150261 0.099177 -0.398536
v -0.224995 0.099177 -0.323802
v 0.000000 0.099177 -0.398536
vt 0.250000 0.750000
vt 0.250000 0.500000
vt 0.297129 0.500000
vt 0.375000 0.577871
vt 0.375000 0.625000
vt 0.375000 0.672129
vt 0.336065 0.711065
vt 0.297129 0.750000
vt 0.547448 0.639244
vt 0.547448 0.657872
vt 0.547448 0.657872
vt 0.547448 0.639244
vt 0.564384 0.528259
vt 0.500000 0.530852
vt 0.435616 0.533444
vt 0.435616 0.533444
vt 0.564384 0.528259
vt 0.550237 0.590916
vt 0.550237 0.611967
vt 0.550237 0.611967
vt 0.550237 0.590916
vt 0.435616 0.466556
vt 0.375000 0.422129
vt 0.500000 0.469148
vt 0.500000 0.422129
vt 0.435616 0.466556
vt 0.435616 0.466556
vt 0.435616 0.533444
vt 0.564384 0.471741
vt 0.564384 0.471741
vt 0.564384 0.528259
vt 0.564384 0.471741
vt 0.545062 0.694872
vt 0.544992 0.727139
vt 0.544992 0.727139
vt 0.545062 0.694872
vt 0.514458 0.590514
vt 0.478678 0.590113
vt 0.500000 0.577871
vt 0.478678 0.612769
vt 0.475410 0.638352
vt 0.475410 0.658765
vt 0.511429 0.638798
vt 0.500000 0.625000
vt 0.402209 0.766227
vt 0.402052 0.811693
vt 0.375000 0.827871
vt 0.375000 0.750000
vt 0.499963 0.767440
vt 0.500000 0.750000
vt 0.471131 0.693105
vt 0.471174 0.728924
vt 0.508097 0.693988
vt 0.500000 0.672129
vt 0.471131 0.693105
vt 0.545062 0.694872
vt 0.545062 0.694872
vt 0.471131 0.693105
vt 0.471174 0.728924
vt 0.471174 0.728924
vt 0.544992 0.727139
vt 0.508083 0.728032
vt 0.471174 0.728924
vt 0.508083 0.728032
vt 0.514458 0.612368
vt 0.478678 0.612769
vt 0.514458 0.612368
vt 0.475410 0.638352
vt 0.475410 0.658765
vt 0.471131 0.693105
vt 0.514458 0.590514
vt 0.478678 0.590113
vt 0.508097 0.693988
vt 0.511429 0.638798
vt 0.511429 0.658319
vt 0.511429 0.658319
vt 0.547448 0.657872
vt 0.475410 0.658765
vt 0.475410 0.658765
vt 0.547448 0.657872
vt 0.547448 0.639244
vt 0.475410 0.638352
vt 0.544992 0.727139
vt 0.550237 0.611967
vt 0.478678 0.612769
vt 0.478678 0.612769
vt 0.550237 0.611967
vt 0.550237 0.590916
vt 0.478678 0.590113
vt 0.475410 0.638352
vt 0.547448 0.639244
vt 0.478678 0.590113
vt 0.550237 0.590916
vt 0.499967 0.810489
vt 0.500000 0.827871
vt 0.500000 0.875000
vt 0.375000 0.875000
vt 0.375000 0.375000
vt 0.500000 0.375000
vt 0.297129 0.750000
vt 0.336065 0.711065
vt 0.375000 0.672129
vt 0.375000 0.625000
vt 0.375000 0.577871
vt 0.297129 0.500000
vt 0.547448 0.639244
vt 0.547448 0.639244
vt 0.547448 0.657872
vt 0.547448 0.657872
vt 0.564384 0.528259
vt 0.564384 0.528259
vt 0.435616 0.533444
vt 0.435616 0.533444
vt 0.500000 0.530852
vt 0.550237 0.590916
vt 0.550237 0.590916
vt 0.550237 0.611967
vt 0.550237 0.611967
vt 0.435616 0.466556
vt 0.375000 0.422129
vt 0.500000 0.469148
vt 0.500000 0.422129
vt 0.435616 0.533444
vt 0.435616 0.466556
vt 0.435616 0.466556
vt 0.564384 0.471741
vt 0.564384 0.471741
vt 0.564384 0.528259
vt 0.564384 0.471741
vt 0.545062 0.694872
vt 0.545062 0.694872
vt 0.544992 0.727139
vt 0.544992 0.727139
vt 0.514458 0.590514
vt 0.500000 0.577871
vt 0.478678 0.590113
vt 0.478678 0.612769
vt 0.475410 0.638352
vt 0.475410 0.658765
vt 0.511429 0.638798
vt 0.500000 0.625000
vt 0.402209 0.766227
vt 0.375000 0.750000
vt 0.375000 0.827871
vt 0.402052 0.811693
vt 0.499963 0.767440
vt 0.500000 0.750000
vt 0.471131 0.693105
vt 0.471174 0.728924
vt 0.508097 0.693988
vt 0.500000 0.672129
vt 0.471131 0.693105
vt 0.471131 0.693105
vt 0.545062 0.694872
vt 0.545062 0.694872
vt 0.471174 0.728924
vt 0.471174 0.728924
vt 0.544992 0.727139
vt 0.508083 0.728032
vt 0.471174 0.728924
vt 0.508083 0.728032
vt 0.514458 0.612368
vt 0.514458 0.612368
vt 0.478678 0.612769
vt 0.475410 0.658765
vt 0.475410 0.638352
vt 0.471131 0.693105
vt 0.478678 0.590113
vt 0.514458 0.590514
vt 0.508097 0.693988
vt 0.511429 0.638798
vt 0.511429 0.658319
vt 0.511429 0.658319
vt 0.547448 0.657872
vt 0.547448 0.657872
vt 0.475410 0.658765
vt 0.475410 0.658765
vt 0.475410 0.638352
vt 0.547448 0.639244
vt 0.544992 0.727139
vt 0.550237 0.611967
vt 0.550237 0.611967
vt 0.478678 0.612769
vt 0.478678 0.612769
vt 0.478678 0.590113
vt 0.550237 0.590916
vt 0.475410 0.638352
vt 0.547448 0.639244
vt 0.478678 0.590113
vt 0.550237 0.590916
vt 0.500000 0.827871
vt 0.499967 0.810489
vt 0.625000 0.375000
vt 0.625000 0.422129
vt 0.625000 0.577871
vt 0.702871 0.500000
vt 0.750000 0.500000
vt 0.750000 0.750000
vt 0.702871 0.750000
vt 0.663935 0.711065
vt 0.625000 0.672129
vt 0.625000 0.625000
vt 0.625000 0.827871
vt 0.625000 0.875000
vt 0.402209 0.766227
vt 0.402052 0.811693
vt 0.597883 0.809284
vt 0.597716 0.768653
vt 0.625000 0.750000
vt 0.402209 0.766227
vt 0.402052 0.811693
vt 0.597883 0.809284
vt 0.597716 0.768653
vt 0.597883 0.809284
vt 0.597716 0.768653
vt 0.625000 0.422129
vt 0.625000 0.577871
vt 0.625000 0.625000
vt 0.625000 0.672129
vt 0.663935 0.711065
vt 0.702871 0.750000
vt 0.702871 0.500000
vt 0.625000 0.827871
vt 0.402052 0.811693
vt 0.402209 0.766227
vt 0.597883 0.809284
vt 0.625000 0.750000
vt 0.597716 0.768653
vt 0.402052 0.811693
vt 0.402209 0.766227
vt 0.597716 0.768653
vt 0.597883 0.809284
vt 0.597883 0.809284
vt 0.597716 0.768653
vn -0.0062 -1.0000 -0.0062
vn 0.0000 0.0000 1.0000
vn 0.7624 0.1247 0.6350
vn 0.6265 0.4638 -0.6265
vn -0.6726 -0.5188 0.5276
vn 0.1965 -0.9209 -0.3366
vn -0.1496 0.9444 0.2928
vn -0.8236 0.3029 -0.4796
vn 0.6040 -0.3414 -0.7201
vn 0.6980 0.4113 -0.5862
vn -0.4081 0.2796 -0.8691
vn 0.9206 -0.1298 0.3682
vn 0.8808 0.4735 0.0000
vn 0.6218 0.4644 0.6307
vn 0.6212 0.4637 0.6317
vn 0.6327 0.4646 0.6195
vn 0.6331 0.4658 0.6183
vn 0.9190 0.3031 -0.2522
vn -0.2600 -0.7821 -0.5663
vn 0.7235 -0.0360 0.6894
vn -0.8944 0.4472 0.0000
vn 0.0000 -1.0000 0.0000
vn -0.2170 -0.1049 0.9705
vn 0.1943 0.2113 -0.9579
vn -0.3263 0.9308 0.1645
vn -0.3153 -0.0520 0.9476
vn 0.2548 -0.9523 -0.1677
vn 0.3294 0.7131 0.6189
vn -0.7192 -0.1088 0.6862
vn 0.2963 -0.9551 0.0034
vn 0.5534 0.2868 -0.7820
vn -0.3798 0.9222 -0.0726
vn 0.0577 -0.2440 0.9681
vn -0.1299 0.3098 -0.9419
vn -0.2656 0.9548 0.1337
vn -0.0126 -0.1478 0.9889
vn 0.2055 -0.9692 -0.1359
vn -0.8173 -0.1547 0.5551
vn 0.9990 -0.0390 -0.0234
vn 0.4363 0.2420 -0.8666
vn -0.4591 -0.8517 -0.2527
vn 0.5580 0.7960 0.2347
vn 0.9900 -0.1378 -0.0293
vn 0.2948 0.3492 -0.8895
vn -0.6723 -0.7187 -0.1773
vn 0.7502 0.6418 0.1589
vn 0.6208 0.4652 0.6310
vn 0.0000 0.4735 0.8808
vn 0.6340 0.4637 0.6188
vn 0.0000 0.4735 -0.8808
vn 0.0062 -1.0000 -0.0062
vn -0.7624 0.1247 0.6350
vn -0.6265 0.4638 -0.6265
vn 0.6726 -0.5188 0.5276
vn -0.1965 -0.9209 -0.3366
vn 0.1496 0.9444 0.2928
vn 0.8236 0.3029 -0.4796
vn -0.6040 -0.3414 -0.7201
vn -0.6980 0.4113 -0.5862
vn 0.4081 0.2796 -0.8691
vn -0.9206 -0.1298 0.3682
vn -0.8808 0.4735 0.0000
vn -0.6218 0.4644 0.6307
vn -0.6212 0.4637 0.6317
vn -0.6327 0.4646 0.6195
vn -0.6331 0.4658 0.6183
vn -0.9190 0.3031 -0.2522
vn 0.2600 -0.7821 -0.5663
vn -0.7235 -0.0360 0.6894
vn 0.2170 -0.1049 0.9705
vn -0.1943 0.2113 -0.9579
vn 0.3263 0.9308 0.1645
vn 0.3153 -0.0520 0.9476
vn -0.2548 -0.9523 -0.1677
vn -0.3294 0.7131 0.6189
vn 0.7192 -0.1088 0.6862
vn -0.2963 -0.9551 0.0034
vn -0.5534 0.2868 -0.7820
vn 0.3798 0.9222 -0.0726
vn -0.0577 -0.2440 0.9681
vn 0.1299 0.3098 -0.9419
vn 0.2656 0.9548 0.1337
vn 0.0126 -0.1478 0.9889
vn -0.2055 -0.9692 -0.1359
vn 0.8173 -0.1547 0.5551
vn -0.9990 -0.0390 -0.0234
vn -0.4363 0.2420 -0.8666
vn 0.4591 -0.8517 -0.2527
vn -0.5580 0.7960 0.2347
vn -0.9900 -0.1378 -0.0293
vn -0.2948 0.3492 -0.8895
vn 0.6723 -0.7187 -0.1773
vn -0.7502 0.6418 0.1589
vn -0.6208 0.4652 0.6310
vn -0.6340 0.4637 0.6188
vn 0.0078 0.9999 0.0078
vn 0.0198 -0.9930 0.1166
vn 0.6204 0.4645 0.6319
vn 0.6211 0.4651 0.6308
vn 0.6347 0.4649 0.6173
vn 0.6338 0.4637 0.6190
vn -0.1235 -0.7773 0.6169
vn -0.0300 0.8192 -0.5727
vn 0.8460 -0.1283 -0.5175
vn -0.9228 0.2214 0.3152
vn -0.2495 0.4307 0.8673
vn 0.0047 0.9898 -0.1427
vn 0.6957 0.3213 0.6425
vn -0.8800 -0.0145 -0.4748
vn 0.6215 0.4637 0.6314
vn 0.6329 0.4657 0.6185
vn -0.0078 0.9999 0.0078
vn -0.0198 -0.9930 0.1166
vn -0.6204 0.4645 0.6319
vn -0.6211 0.4651 0.6308
vn -0.6347 0.4649 0.6173
vn -0.6338 0.4637 0.6190
vn 0.1235 -0.7773 0.6169
vn 0.0300 0.8192 -0.5727
vn -0.8460 -0.1283 -0.5175
vn 0.9228 0.2214 0.3152
vn 0.2495 0.4307 0.8673
vn -0.0047 0.9898 -0.1427
vn -0.6957 0.3213 0.6425
vn 0.8800 -0.0145 -0.4748
vn -0.6215 0.4637 0.6314
vn -0.6329 0.4657 0.6185
usemtl Material
s off
f 126/1/1 123/2/1 12/3/1 24/4/1 30/5/1 38/6/1 37/7/1 35/8/1
f 26/9/2 6/10/2 46/11/2 47/12/2
f 1/13/3 102/14/3 4/15/3 15/16/3 14/17/3
f 10/18/2 22/19/2 44/20/2 41/21/2
f 3/22/4 4/15/4 24/4/4 12/23/4
f 106/24/4 3/22/4 12/23/4 105/25/4
f 15/16/5 16/26/5 20/27/5 19/28/5
f 4/15/6 3/22/6 16/26/6 15/16/6
f 2/29/7 1/13/7 14/17/7 13/30/7
f 3/22/8 106/24/8 2/29/8 13/30/8 16/26/8
f 18/31/9 19/28/9 20/27/9 17/32/9
f 13/30/10 14/17/10 18/31/10 17/32/10
f 16/26/11 13/30/11 17/32/11 20/27/11
f 14/17/12 15/16/12 19/28/12 18/31/12
f 28/33/2 33/34/2 52/35/2 51/36/2
f 104/37/13 11/38/13 24/4/13 101/39/13
f 11/38/13 21/40/13 30/5/13 24/4/13
f 25/41/13 7/42/13 38/6/13 30/5/13
f 99/43/13 25/41/13 30/5/13 93/44/13
f 32/45/14 8/46/14 35/47/14 37/48/14
f 88/49/15 32/45/15 37/48/15 87/50/15
f 27/51/16 36/52/16 37/48/16 38/6/16
f 97/53/17 27/51/17 38/6/17 90/54/17
f 59/55/18 60/56/18 68/57/18 67/58/18
f 58/59/19 59/55/19 67/58/19 65/60/19
f 66/61/20 65/60/20 67/58/20 68/57/20
f 33/34/21 96/62/21 36/52/21 49/63/21 89/64/21 52/35/21
f 100/65/2 21/40/2 43/66/2 94/67/2
f 7/42/2 25/41/2 48/68/2 45/69/2
f 36/52/2 27/51/2 50/70/2 49/63/2
f 11/38/22 104/37/22 10/18/22 41/21/22 103/71/22 42/72/22
f 97/53/2 28/33/2 51/36/2 92/73/2
f 99/43/2 26/9/2 47/12/2 95/74/2
f 21/40/2 11/38/2 42/72/2 43/66/2
f 6/10/2 98/75/2 7/42/2 45/69/2 91/76/2 46/11/2
f 55/77/23 56/78/23 72/79/23 71/80/23
f 47/12/24 54/81/24 53/82/24 48/68/24 95/74/24
f 46/11/25 55/77/25 54/81/25 47/12/25
f 45/69/26 56/78/26 55/77/26 46/11/26 91/76/26
f 48/68/27 53/82/27 56/78/27 45/69/27
f 60/56/28 57/83/28 66/61/28 68/57/28
f 49/63/29 58/59/29 57/83/29 52/35/29 89/64/29
f 50/70/30 59/55/30 58/59/30 49/63/30
f 51/36/31 60/56/31 59/55/31 50/70/31 92/73/31
f 52/35/32 57/83/32 60/56/32 51/36/32
f 63/84/33 64/85/33 76/86/33 75/87/33
f 41/21/34 62/88/34 61/89/34 42/72/34 103/71/34
f 44/20/35 63/84/35 62/88/35 41/21/35
f 43/66/36 64/85/36 63/84/36 44/20/36 94/67/36
f 42/72/37 61/89/37 64/85/37 43/66/37
f 57/83/38 58/59/38 65/60/38 66/61/38
f 70/90/39 69/91/39 71/80/39 72/79/39
f 53/82/40 54/81/40 69/91/40 70/90/40
f 56/78/41 53/82/41 70/90/41 72/79/41
f 54/81/42 55/77/42 71/80/42 69/91/42
f 74/92/43 73/93/43 75/87/43 76/86/43
f 61/89/44 62/88/44 73/93/44 74/92/44
f 64/85/45 61/89/45 74/92/45 76/86/45
f 62/88/46 63/84/46 75/87/46 73/93/46
f 8/46/47 86/94/47 85/95/47 35/47/47
f 35/47/48 85/95/48 196/96/48 126/97/48
f 36/52/49 96/62/49 87/50/49 37/48/49
f 27/51/2 97/53/2 92/73/2 50/70/2
f 7/42/13 98/75/13 90/54/13 38/6/13
f 25/41/2 99/43/2 95/74/2 48/68/2
f 22/19/2 100/65/2 94/67/2 44/20/2
f 21/40/13 100/65/13 93/44/13 30/5/13
f 4/15/4 102/14/4 101/39/4 24/4/4
f 123/98/50 218/99/50 105/25/50 12/23/50
f 126/1/51 145/100/51 147/101/51 148/102/51 140/103/51 134/104/51 118/105/51 123/2/51
f 136/106/2 157/107/2 156/108/2 112/109/2
f 107/110/52 120/111/52 121/112/52 110/113/52 213/114/52
f 116/115/2 151/116/2 154/117/2 132/118/2
f 109/119/53 118/120/53 134/104/53 110/113/53
f 217/121/53 216/122/53 118/120/53 109/119/53
f 121/112/54 129/123/54 130/124/54 122/125/54
f 110/113/55 121/112/55 122/125/55 109/119/55
f 108/126/56 119/127/56 120/111/56 107/110/56
f 109/119/57 122/125/57 119/127/57 108/126/57 217/121/57
f 128/128/58 127/129/58 130/124/58 129/123/58
f 119/127/59 127/129/59 128/128/59 120/111/59
f 122/125/60 130/124/60 127/129/60 119/127/60
f 120/111/61 128/128/61 129/123/61 121/112/61
f 138/130/2 161/131/2 162/132/2 143/133/2
f 215/134/62 212/135/62 134/104/62 117/136/62
f 117/136/62 134/104/62 140/103/62 131/137/62
f 135/138/62 140/103/62 148/102/62 113/139/62
f 210/140/62 204/141/62 140/103/62 135/138/62
f 142/142/63 147/143/63 145/144/63 114/145/63
f 199/146/64 198/147/64 147/143/64 142/142/64
f 137/148/65 148/102/65 147/143/65 146/149/65
f 208/150/66 201/151/66 148/102/66 137/148/66
f 169/152/67 177/153/67 178/154/67 170/155/67
f 168/156/68 175/157/68 177/153/68 169/152/68
f 176/158/69 178/154/69 177/153/69 175/157/69
f 143/133/2 162/132/2 200/159/2 159/160/2 146/149/2 207/161/2
f 211/162/2 205/163/2 153/164/2 131/137/2
f 113/139/2 155/165/2 158/166/2 135/138/2
f 146/149/2 159/160/2 160/167/2 137/148/2
f 117/136/2 152/168/2 214/169/2 151/116/2 116/115/2 215/134/2
f 208/150/2 203/170/2 161/131/2 138/130/2
f 210/140/2 206/171/2 157/107/2 136/106/2
f 131/137/2 153/164/2 152/168/2 117/136/2
f 112/109/22 156/108/22 202/172/22 155/165/22 113/139/22 209/173/22
f 165/174/70 181/175/70 182/176/70 166/177/70
f 157/107/71 206/171/71 158/166/71 163/178/71 164/179/71
f 156/108/72 157/107/72 164/179/72 165/174/72
f 155/165/73 202/172/73 156/108/73 165/174/73 166/177/73
f 158/166/74 155/165/74 166/177/74 163/178/74
f 170/155/75 178/154/75 176/158/75 167/180/75
f 159/160/76 200/159/76 162/132/76 167/180/76 168/156/76
f 160/167/77 159/160/77 168/156/77 169/152/77
f 161/131/78 203/170/78 160/167/78 169/152/78 170/155/78
f 162/132/79 161/131/79 170/155/79 167/180/79
f 173/181/80 185/182/80 186/183/80 174/184/80
f 151/116/81 214/169/81 152/168/81 171/185/81 172/186/81
f 154/117/82 151/116/82 172/186/82 173/181/82
f 153/164/83 205/163/83 154/117/83 173/181/83 174/184/83
f 152/168/84 153/164/84 174/184/84 171/185/84
f 167/180/85 176/158/85 175/157/85 168/156/85
f 180/187/86 182/176/86 181/175/86 179/188/86
f 163/178/87 180/187/87 179/188/87 164/179/87
f 166/177/88 182/176/88 180/187/88 163/178/88
f 164/179/89 179/188/89 181/175/89 165/174/89
f 184/189/90 186/183/90 185/182/90 183/190/90
f 171/185/91 184/189/91 183/190/91 172/186/91
f 174/184/92 186/183/92 184/189/92 171/185/92
f 172/186/93 183/190/93 185/182/93 173/181/93
f 114/145/94 145/144/94 195/191/94 197/192/94
f 145/144/48 126/97/48 196/96/48 195/191/48
f 146/149/95 147/143/95 198/147/95 207/161/95
f 137/148/2 160/167/2 203/170/2 208/150/2
f 113/139/62 148/102/62 201/151/62 209/173/62
f 135/138/2 158/166/2 206/171/2 210/140/2
f 132/118/2 154/117/2 205/163/2 211/162/2
f 131/137/62 140/103/62 204/141/62 211/162/62
f 110/113/53 134/104/53 212/135/53 213/114/53
f 123/98/50 118/120/50 216/122/50 218/99/50
usemtl Material.001
f 218/99/50 124/193/50 9/194/50 105/25/50
f 1/13/4 2/29/4 9/194/4 23/195/4
f 102/14/4 1/13/4 23/195/4 101/39/4
f 23/195/96 9/196/96 124/197/96 125/198/96 34/199/96 40/200/96 39/201/96 29/202/96
f 85/95/48 34/203/48 125/204/48 196/96/48
f 22/19/13 10/18/13 23/195/13 29/202/13
f 100/65/13 22/19/13 29/202/13 93/44/13
f 98/75/13 6/10/13 39/201/13 90/54/13
f 6/10/13 26/9/13 29/202/13 39/201/13
f 8/46/97 32/45/97 80/205/97 79/206/97
f 5/207/98 31/208/98 40/209/98 34/203/98
f 86/94/99 5/207/99 34/203/99 85/95/99
f 33/34/100 28/33/100 39/201/100 40/209/100
f 96/62/101 33/34/101 40/209/101 87/50/101
f 79/206/102 80/205/102 84/210/102 83/211/102
f 31/208/103 5/207/103 78/212/103 77/213/103
f 32/45/104 88/49/104 31/208/104 77/213/104 80/205/104
f 5/207/105 86/94/105 8/46/105 79/206/105 78/212/105
f 82/214/106 83/211/106 84/210/106 81/215/106
f 77/213/107 78/212/107 82/214/107 81/215/107
f 80/205/108 77/213/108 81/215/108 84/210/108
f 78/212/109 79/206/109 83/211/109 82/214/109
f 31/208/110 88/49/110 87/50/110 40/209/110
f 28/33/111 97/53/111 90/54/111 39/201/111
f 26/9/13 99/43/13 93/44/13 29/202/13
f 10/18/13 104/37/13 101/39/13 23/195/13
f 2/29/4 106/24/4 105/25/4 9/194/4
f 218/99/50 216/122/50 115/216/50 124/193/50
f 107/110/53 133/217/53 115/216/53 108/126/53
f 213/114/53 212/135/53 133/217/53 107/110/53
f 133/217/112 139/218/112 149/219/112 150/220/112 144/221/112 125/198/112 124/197/112 115/222/112
f 195/191/48 196/96/48 125/204/48 144/223/48
f 132/118/62 139/218/62 133/217/62 116/115/62
f 211/162/62 204/141/62 139/218/62 132/118/62
f 209/173/62 201/151/62 149/219/62 112/109/62
f 112/109/62 149/219/62 139/218/62 136/106/62
f 114/145/113 189/224/113 190/225/113 142/142/113
f 111/226/114 144/223/114 150/227/114 141/228/114
f 197/192/115 195/191/115 144/223/115 111/226/115
f 143/133/116 150/227/116 149/219/116 138/130/116
f 207/161/117 198/147/117 150/227/117 143/133/117
f 189/224/118 193/229/118 194/230/118 190/225/118
f 141/228/119 187/231/119 188/232/119 111/226/119
f 142/142/120 190/225/120 187/231/120 141/228/120 199/146/120
f 111/226/121 188/232/121 189/224/121 114/145/121 197/192/121
f 192/233/122 191/234/122 194/230/122 193/229/122
f 187/231/123 191/234/123 192/233/123 188/232/123
f 190/225/124 194/230/124 191/234/124 187/231/124
f 188/232/125 192/233/125 193/229/125 189/224/125
f 141/228/126 150/227/126 198/147/126 199/146/126
f 138/130/127 149/219/127 201/151/127 208/150/127
f 136/106/62 139/218/62 204/141/62 210/140/62
f 116/115/62 133/217/62 212/135/62 215/134/62
f 108/126/53 115/216/53 216/122/53 217/121/53
