# Blender v2.83.0 OBJ File: ''
# www.blender.org
mtllib double_stick.mtl
o Cube.003
v 0.173828 0.132229 -0.233084
v 0.181472 0.235375 -0.245918
v 0.192684 0.108648 0.419095
v 0.185040 0.005502 0.431929
v 0.070605 0.235597 -0.266734
v 0.081817 0.108870 0.398280
v 0.055005 0.132007 -0.238305
v 0.066217 0.005280 0.426708
v 0.135886 0.097576 0.865563
v 0.017063 0.097355 0.860342
v 0.017365 0.104701 -0.889595
v 0.001767 0.001111 -0.861166
v 0.128233 0.104479 -0.868779
v 0.120590 0.001333 -0.855945
v 0.143529 0.200723 0.852730
v 0.032662 0.200945 0.831914
vt 0.375000 0.625000
vt 0.625000 0.625000
vt 0.625000 0.625000
vt 0.375000 0.625000
vt 0.625000 0.500000
vt 0.625000 0.500000
vt 0.375000 0.500000
vt 0.375000 0.500000
vt 0.375000 0.625000
vt 0.375000 0.500000
vt 0.625000 0.500000
vt 0.375000 0.500000
vt 0.625000 0.625000
vt 0.375000 0.625000
vt 0.625000 0.625000
vt 0.625000 0.500000
vn 0.9965 -0.0778 -0.0316
vn -0.0333 0.9817 0.1876
vn -0.9857 0.1615 0.0475
vn -0.9855 0.1621 0.0499
vn -0.9857 0.1615 0.0474
vn 0.0101 -0.9822 -0.1873
vn -0.0073 -0.9783 0.2069
vn -0.9855 0.1622 0.0502
vn 0.1102 -0.2064 -0.9722
vn -0.0072 -0.9785 0.2062
vn 0.9943 -0.0821 -0.0677
vn 0.0412 0.9771 -0.2089
vn -0.1102 0.2064 0.9722
vn -0.9846 0.1112 -0.1352
vn 0.0401 0.9783 -0.2032
vn 0.9905 -0.0579 0.1246
usemtl Material.004
s 1
f 1/1/1 2/2/1 3/3/1 4/4/1
f 2/2/2 5/5/2 6/6/2 3/3/2
f 5/5/3 7/7/4 8/8/5 6/6/5
f 7/7/6 1/1/6 4/4/6 8/8/6
f 8/8/7 4/4/7 9/9/7 10/10/7
f 7/7/4 5/5/3 11/11/8 12/12/8
f 12/12/9 11/11/9 13/13/9 14/14/9
f 1/1/10 7/7/10 12/12/10 14/14/10
f 2/2/11 1/1/11 14/14/11 13/13/11
f 5/5/12 2/2/12 13/13/12 11/11/12
f 10/10/13 9/9/13 15/15/13 16/16/13
f 6/6/14 8/8/14 10/10/14 16/16/14
f 3/3/15 6/6/15 16/16/15 15/15/15
f 4/4/16 3/3/16 15/15/16 9/9/16
o Cube.001_Cube.004
v 0.165856 0.140185 -0.251570
v 0.149403 0.105440 -0.348443
v -0.453116 0.165324 -0.045436
v -0.436663 0.200069 0.051437
v 0.182746 0.004032 -0.311981
v -0.419774 0.063916 -0.008974
v 0.185391 0.031643 -0.207037
v -0.417128 0.091526 0.095969
v -0.869718 0.116745 0.118164
v -0.850183 0.008202 0.162696
v 0.819509 0.009932 -0.361191
v 0.822154 0.037544 -0.256249
v 0.786166 0.111341 -0.397654
v 0.802619 0.146086 -0.300781
v -0.886172 0.081999 0.021291
v -0.852829 -0.019409 0.057753
vt 0.375000 0.625000
vt 0.625000 0.625000
vt 0.625000 0.625000
vt 0.375000 0.625000
vt 0.625000 0.500000
vt 0.625000 0.500000
vt 0.375000 0.500000
vt 0.375000 0.500000
vt 0.375000 0.625000
vt 0.375000 0.500000
vt 0.625000 0.500000
vt 0.375000 0.500000
vt 0.625000 0.625000
vt 0.375000 0.625000
vt 0.625000 0.625000
vt 0.625000 0.500000
vn -0.0703 0.9427 -0.3262
vn -0.4396 -0.4284 -0.7895
vn 0.0313 -0.9668 0.2536
vn 0.0289 -0.9669 0.2537
vn 0.0314 -0.9668 0.2536
vn 0.4423 0.4074 0.7990
vn 0.0667 0.3890 0.9188
vn 0.0286 -0.9669 0.2537
vn 0.9709 0.1868 -0.1496
vn 0.0674 0.3891 0.9187
vn -0.0344 0.9426 -0.3322
vn -0.0687 -0.3575 -0.9314
vn -0.9709 -0.1868 0.1496
vn 0.2193 -0.9449 0.2431
vn -0.0743 -0.3590 -0.9304
vn -0.2242 0.9288 -0.2951
usemtl Material.005
s 1
f 17/17/17 18/18/17 19/19/17 20/20/17
f 18/18/18 21/21/18 22/22/18 19/19/18
f 21/21/19 23/23/20 24/24/21 22/22/21
f 23/23/22 17/17/22 20/20/22 24/24/22
f 24/24/23 20/20/23 25/25/23 26/26/23
f 23/23/20 21/21/19 27/27/24 28/28/24
f 28/28/25 27/27/25 29/29/25 30/30/25
f 17/17/26 23/23/26 28/28/26 30/30/26
f 18/18/27 17/17/27 30/30/27 29/29/27
f 21/21/28 18/18/28 29/29/28 27/27/28
f 26/26/29 25/25/29 31/31/29 32/32/29
f 22/22/30 24/24/30 26/26/30 32/32/30
f 19/19/31 22/22/31 32/32/31 31/31/31
f 20/20/32 19/19/32 31/31/32 25/25/32
