# Blender v2.92.0 OBJ File: ''
# www.blender.org
mtllib goat.mtl
o Cube
v 0.977331 1.435469 0.235526
v 0.776205 0.937514 0.261625
v -0.924889 1.439849 0.150071
v -0.741776 0.695422 0.232866
v -0.973424 1.145837 0.284881
v 0.971832 1.175586 0.281485
v 0.009659 1.489532 0.298836
v -0.021170 0.590015 0.277976
v -0.026531 1.057581 0.362540
v 0.985080 1.458912 0.155013
v 0.985080 1.458912 0.155013
v 1.201115 1.760767 0.189798
v 1.439488 1.760767 0.189798
v 1.157331 1.553375 0.119022
v 1.285587 1.760767 0.189798
v 1.159176 1.956147 0.062345
v 1.248415 1.854217 0.269473
v 1.299721 1.917822 0.290866
v 1.216982 2.027811 0.086448
v 0.825464 1.917444 0.310810
v 1.029566 1.820617 0.411917
v 1.078574 1.888884 0.403349
v 0.880682 1.994360 0.301156
v 0.573564 1.721215 0.549687
v 0.605869 1.694165 0.719521
v 0.647917 1.736132 0.725642
v 0.620939 1.768500 0.556585
v 0.451619 1.861160 0.644546
v 0.466974 1.848303 0.725267
v 0.486959 1.868250 0.728177
v 0.474137 1.883634 0.647824
v -0.966300 0.011568 0.277145
v -0.966300 1.140629 0.277145
v -0.966300 0.011568 0.082763
v -0.966300 1.140629 0.082763
v -0.771918 0.011568 0.277145
v -0.771918 1.140629 0.277145
v -0.771918 0.011568 0.082763
v -0.771918 1.140629 0.082763
v 0.557437 -0.012506 0.256804
v 0.557437 1.248574 0.256804
v 0.557437 -0.012506 0.074450
v 0.557437 1.248574 0.074450
v 0.739791 -0.012506 0.256804
v 0.739791 1.248574 0.256804
v 0.739791 -0.012506 0.074450
v 0.739791 1.248574 0.074450
v -1.010248 1.422454 0.100203
v -1.098352 1.390435 0.039921
v 0.977331 1.435469 -0.235526
v 0.776205 0.937514 -0.261625
v -0.924889 1.439849 -0.150071
v -0.741776 0.695422 -0.232866
v -0.884054 0.724543 0.000000
v -0.973424 1.145837 -0.284881
v 0.971832 1.175586 -0.281485
v 0.009659 1.489532 -0.298836
v -0.021170 0.590015 -0.277976
v -0.936321 1.504047 0.000000
v 1.002249 0.851192 0.000000
v 1.000000 1.024747 0.000000
v 0.000000 0.545448 0.000000
v -1.000000 1.024747 0.000000
v -0.026531 1.057581 -0.362540
v 0.372823 1.578679 0.000000
v 0.566232 1.555664 0.000000
v 0.985080 1.458912 -0.155013
v 1.165371 1.191465 0.000000
v 0.566232 1.555664 0.000000
v 0.985080 1.458912 -0.155013
v 1.376524 1.332673 0.000000
v 1.171209 1.916773 0.000000
v 1.201115 1.760767 -0.189798
v 1.588360 1.421391 0.000000
v 1.409582 1.916773 0.000000
v 1.439488 1.760767 -0.189798
v 1.119748 1.711029 0.000000
v 1.157331 1.553375 -0.119022
v 1.663027 1.587880 0.000000
v 1.266384 1.916773 0.000000
v 1.285587 1.760767 -0.189798
v 1.159176 1.956147 -0.062345
v 1.248415 1.854217 -0.269473
v 1.299721 1.917822 -0.290866
v 1.216982 2.027811 -0.086448
v 0.825464 1.917444 -0.310810
v 1.029566 1.820617 -0.411917
v 1.078574 1.888884 -0.403349
v 0.880682 1.994360 -0.301156
v 0.573564 1.721215 -0.549687
v 0.605869 1.694165 -0.719521
v 0.647917 1.736132 -0.725642
v 0.620939 1.768500 -0.556585
v 0.451619 1.861160 -0.644546
v 0.466974 1.848303 -0.725267
v 0.486959 1.868250 -0.728177
v 0.474137 1.883634 -0.647824
v -0.966300 0.011568 -0.277145
v -0.966300 1.140629 -0.277145
v -0.966300 0.011568 -0.082763
v -0.966300 1.140629 -0.082763
v -0.771918 0.011568 -0.277145
v -0.771918 1.140629 -0.277145
v -0.771918 0.011568 -0.082763
v -0.771918 1.140629 -0.082763
v 0.557437 -0.012506 -0.256804
v 0.557437 1.248574 -0.256804
v 0.557437 -0.012506 -0.074450
v 0.557437 1.248574 -0.074450
v 0.739791 -0.012506 -0.256804
v 0.739791 1.248574 -0.256804
v 0.739791 -0.012506 -0.074450
v 0.739791 1.248574 -0.074450
v -1.010248 1.422454 -0.100203
v -1.000000 1.338103 0.000000
v -1.098352 1.390435 -0.039921
v -1.149955 1.427633 0.000000
v -1.213634 1.261689 0.000000
vt 0.875000 0.625000
vt 0.875000 0.700732
vt 0.875000 0.750000
vt 0.500000 0.875000
vt 0.625000 0.875000
vt 0.625000 1.000000
vt 0.500000 1.000000
vt 0.250000 0.625000
vt 0.375000 0.625000
vt 0.375000 0.750000
vt 0.250000 0.750000
vt 0.500000 0.625000
vt 0.500000 0.750000
vt 0.125000 0.625000
vt 0.125000 0.750000
vt 0.375000 0.000000
vt 0.500000 0.000000
vt 0.500000 0.125000
vt 0.375000 0.125000
vt 0.625000 0.000000
vt 0.625000 0.049268
vt 0.581722 0.125000
vt 0.375000 0.875000
vt 0.375000 1.000000
vt 0.625000 0.750000
vt 0.569133 0.625000
vt 0.625000 0.707269
vt 0.625000 0.707269
vt 0.711452 0.625000
vt 0.750000 0.625000
vt 0.750000 0.750000
vt 0.625000 0.707269
vt 0.569133 0.625000
vt 0.625000 0.707269
vt 0.711452 0.625000
vt 0.569133 0.625000
vt 0.625000 0.707269
vt 0.625000 0.707269
vt 0.711452 0.625000
vt 0.000000 0.000000
vt 0.000000 0.000000
vt 0.711452 0.625000
vt 0.655030 0.625000
vt 0.711452 0.625000
vt 0.711452 0.625000
vt 0.375000 0.000000
vt 0.625000 0.000000
vt 0.625000 0.250000
vt 0.375000 0.250000
vt 0.625000 0.500000
vt 0.375000 0.500000
vt 0.625000 0.750000
vt 0.375000 0.750000
vt 0.625000 1.000000
vt 0.375000 1.000000
vt 0.125000 0.500000
vt 0.125000 0.750000
vt 0.875000 0.500000
vt 0.875000 0.750000
vt 0.375000 0.000000
vt 0.625000 0.000000
vt 0.625000 0.250000
vt 0.375000 0.250000
vt 0.625000 0.500000
vt 0.375000 0.500000
vt 0.625000 0.750000
vt 0.375000 0.750000
vt 0.625000 1.000000
vt 0.375000 1.000000
vt 0.125000 0.500000
vt 0.125000 0.750000
vt 0.875000 0.500000
vt 0.875000 0.750000
vt 0.581722 0.125000
vt 0.625000 0.049268
vt 0.625000 0.125000
vt 0.875000 0.625000
vt 0.875000 0.700732
vt 0.875000 0.750000
vt 0.875000 0.700732
vt 0.500000 0.875000
vt 0.500000 1.000000
vt 0.625000 1.000000
vt 0.625000 0.875000
vt 0.250000 0.750000
vt 0.375000 0.750000
vt 0.500000 0.750000
vt 0.125000 0.750000
vt 0.375000 0.000000
vt 0.500000 0.000000
vt 0.625000 0.000000
vt 0.625000 0.049268
vt 0.375000 0.875000
vt 0.375000 1.000000
vt 0.625000 0.750000
vt 0.625000 0.707269
vt 0.625000 0.707269
vt 0.750000 0.750000
vt 0.625000 0.707269
vt 0.625000 0.707269
vt 0.625000 0.707269
vt 0.625000 0.707269
vt 0.000000 0.000000
vt 0.000000 0.000000
vt 0.000000 0.000000
vt 0.000000 0.000000
vt 0.000000 0.000000
vt 0.000000 0.000000
vt 0.000000 0.000000
vt 0.000000 0.000000
vt 0.375000 0.000000
vt 0.375000 0.250000
vt 0.625000 0.250000
vt 0.625000 0.000000
vt 0.375000 0.500000
vt 0.625000 0.500000
vt 0.375000 0.750000
vt 0.625000 0.750000
vt 0.375000 1.000000
vt 0.625000 1.000000
vt 0.125000 0.500000
vt 0.125000 0.750000
vt 0.875000 0.750000
vt 0.875000 0.500000
vt 0.375000 0.000000
vt 0.375000 0.250000
vt 0.625000 0.250000
vt 0.625000 0.000000
vt 0.375000 0.500000
vt 0.625000 0.500000
vt 0.375000 0.750000
vt 0.625000 0.750000
vt 0.375000 1.000000
vt 0.625000 1.000000
vt 0.125000 0.500000
vt 0.125000 0.750000
vt 0.875000 0.750000
vt 0.875000 0.500000
vt 0.625000 0.049268
vt 0.000000 0.000000
vt 0.000000 0.000000
vt 0.000000 0.000000
vt 0.000000 0.000000
vt 0.875000 0.700732
vt 0.000000 0.000000
vt 0.000000 0.000000
vt 0.625000 0.707269
vt 0.711452 0.625000
vt 0.711452 0.625000
vt 0.625000 0.707269
vt 0.625000 0.707269
vt 0.711452 0.625000
vt 0.625000 0.707269
vt 0.625000 0.707269
vt 0.625000 0.707269
vt 0.000000 0.000000
vt 0.000000 0.000000
vt 0.711452 0.625000
vt 0.000000 0.000000
vt 0.000000 0.000000
vt 0.000000 0.000000
vt 0.000000 0.000000
vt 0.711452 0.625000
vt 0.711452 0.625000
vt 0.711452 0.625000
vt 0.625000 0.707269
vt 0.625000 0.707269
vt 0.711452 0.625000
vt 0.000000 0.000000
vt 0.000000 0.000000
vt 0.625000 0.707269
vt 0.625000 0.707269
vt 0.711452 0.625000
vt 0.711452 0.625000
vt 0.711452 0.625000
vt 0.625000 0.707269
vt 0.625000 0.707269
vt 0.625000 0.707269
vt 0.625000 0.707269
vt 0.000000 0.000000
vt 0.000000 0.000000
vt 0.711452 0.625000
vt 0.000000 0.000000
vt 0.000000 0.000000
vt 0.000000 0.000000
vt 0.000000 0.000000
vt 0.711452 0.625000
vt 0.711452 0.625000
vt 0.711452 0.625000
vt 0.711452 0.625000
vt 0.625000 0.707269
vt 0.625000 0.707269
vn -0.3956 0.8331 0.3865
vn -0.1094 0.2740 0.9555
vn 0.3213 -0.8760 0.3597
vn 0.7612 -0.3829 0.5235
vn -0.1761 -0.9818 0.0714
vn -0.8413 -0.4137 0.3479
vn -0.2062 -0.7589 0.6177
vn -0.0920 -0.1697 0.9812
vn 0.0990 -0.1632 0.9816
vn 0.0675 0.1522 0.9860
vn 0.8631 0.4566 0.2160
vn 0.0844 0.9328 0.3505
vn 0.1521 -0.3478 0.9251
vn 0.0000 0.0000 1.0000
vn 0.0816 -0.4140 0.9066
vn -0.1590 0.5773 0.8009
vn 0.8190 0.0831 0.5678
vn 0.3209 -0.3183 -0.8921
vn 0.0968 -0.1761 0.9796
vn 0.7412 0.5712 0.3527
vn 0.2678 -0.2956 0.9170
vn -0.9222 0.1517 0.3556
vn 0.5187 -0.2326 0.8227
vn 0.0000 0.7725 0.6350
vn -1.0000 0.0000 0.0000
vn 0.0000 0.0000 -1.0000
vn 1.0000 0.0000 0.0000
vn 0.0000 -1.0000 0.0000
vn 0.0000 1.0000 0.0000
vn -0.5083 0.1951 0.8388
vn 0.0367 -0.5616 0.8266
vn -0.3768 0.7353 0.5633
vn -0.0712 0.9597 0.2720
vn -0.9212 0.2773 0.2731
vn -0.9957 0.0000 0.0929
vn -0.3956 0.8331 -0.3865
vn -0.1094 0.2740 -0.9555
vn 0.3213 -0.8760 -0.3597
vn 0.7612 -0.3829 -0.5235
vn -0.1761 -0.9818 -0.0714
vn -0.8413 -0.4137 -0.3479
vn -0.2062 -0.7589 -0.6177
vn -0.0920 -0.1697 -0.9812
vn 0.0990 -0.1632 -0.9816
vn 0.0675 0.1522 -0.9860
vn 0.8631 0.4566 -0.2160
vn 0.0844 0.9328 -0.3505
vn 0.1521 -0.3478 -0.9251
vn 0.0816 -0.4140 -0.9066
vn -0.1590 0.5773 -0.8009
vn 0.8190 0.0831 -0.5678
vn 0.3209 -0.3183 0.8921
vn 0.0968 -0.1761 -0.9796
vn 0.7412 0.5712 -0.3527
vn 0.2678 -0.2956 -0.9170
vn -0.9222 0.1517 -0.3556
vn 0.5187 -0.2326 -0.8227
vn 0.0000 0.7725 -0.6350
vn -0.5083 0.1951 -0.8388
vn 0.0367 -0.5616 -0.8266
vn -0.3768 0.7353 -0.5633
vn -0.0712 0.9597 -0.2720
vn -0.9212 0.2773 -0.2731
vn -0.9957 0.0000 -0.0929
vn -0.1889 0.6506 -0.7356
vn 0.1707 0.8728 0.4572
vn -0.9628 -0.0315 0.2685
vn 0.9720 0.2063 -0.1122
vn 0.1593 -0.6030 0.7816
vn 0.6147 -0.4941 0.6148
vn 0.4949 -0.4488 0.7441
vn -0.5345 0.4746 -0.6993
vn -0.1740 -0.8947 -0.4114
vn -0.2524 0.3825 -0.8888
vn -0.7489 0.6130 -0.2517
vn 0.0561 -0.8886 -0.4553
vn -0.0631 0.8676 0.4932
vn -0.7030 0.6693 0.2403
vn -0.7418 -0.6697 0.0344
vn 0.6342 0.7718 0.0466
vn -0.0567 -0.0882 0.9945
vn -0.1889 0.6506 0.7356
vn 0.1707 0.8728 -0.4572
vn -0.9628 -0.0315 -0.2685
vn 0.9720 0.2063 0.1122
vn 0.1593 -0.6030 -0.7816
vn 0.6147 -0.4941 -0.6148
vn 0.4949 -0.4488 -0.7441
vn -0.5345 0.4746 0.6993
vn -0.1740 -0.8947 0.4114
vn -0.2524 0.3825 0.8888
vn -0.7489 0.6130 0.2517
vn 0.0561 -0.8886 0.4553
vn -0.0631 0.8676 -0.4932
vn -0.7030 0.6693 -0.2403
vn -0.7418 -0.6697 -0.0344
vn 0.6342 0.7718 -0.0466
vn -0.0567 -0.0882 -0.9945
usemtl Material
s off
f 59/1/1 48/2/1 3/3/1
f 9/4/2 7/5/2 3/6/2 5/7/2
f 62/8/3 60/9/3 2/10/3 8/11/3
f 60/9/4 61/12/4 6/13/4 2/10/4
f 54/14/5 62/8/5 8/11/5 4/15/5
f 4/16/6 5/17/6 63/18/6 54/19/6
f 3/20/7 48/21/7 115/22/7
f 8/23/8 9/4/8 5/7/8 4/24/8
f 2/10/9 6/13/9 9/4/9
f 6/13/10 1/25/10 7/5/10 9/4/10
f 68/26/11 11/27/11 10/28/11 1/25/11
f 10/28/12 66/29/12 65/30/12 7/31/12 1/25/12
f 14/32/13 71/33/13 12/34/13
f 66/29/14 10/28/14 11/27/14 69/35/14
f 12/34/15 71/33/15 74/36/15 13/37/15 15/38/15
f 69/35/16 11/27/16 14/32/16 77/39/16
f 68/26/17 1/25/17 6/13/17
f 69/40/18 68/26/18 6/13/18 61/12/18 66/41/18
f 8/23/19 2/10/19 9/4/19
f 75/42/20 13/37/20 79/43/20
f 11/27/21 68/26/21 71/33/21 14/32/21
f 77/39/22 14/32/22 12/34/22 72/44/22
f 79/43/23 13/37/23 74/36/23
f 80/45/24 15/38/24 13/37/24 75/42/24
f 32/46/25 33/47/25 35/48/25 34/49/25
f 34/49/26 35/48/26 39/50/26 38/51/26
f 38/51/27 39/50/27 37/52/27 36/53/27
f 36/53/14 37/52/14 33/54/14 32/55/14
f 34/56/28 38/51/28 36/53/28 32/57/28
f 39/50/29 35/58/29 33/59/29 37/52/29
f 40/60/25 41/61/25 43/62/25 42/63/25
f 42/63/26 43/62/26 47/64/26 46/65/26
f 46/65/27 47/64/27 45/66/27 44/67/27
f 44/67/14 45/66/14 41/68/14 40/69/14
f 42/70/28 46/65/28 44/67/28 40/71/28
f 47/64/29 43/72/29 41/73/29 45/66/29
f 118/74/30 49/75/30 117/76/30
f 115/22/31 48/21/31 49/75/31 118/74/31
f 48/2/32 59/1/32 117/77/32 49/78/32
f 65/30/33 59/1/33 3/3/33 7/31/33
f 5/17/34 3/20/34 115/22/34
f 63/18/35 5/17/35 115/22/35
f 59/1/36 52/79/36 114/80/36
f 64/81/37 55/82/37 52/83/37 57/84/37
f 62/8/38 58/85/38 51/86/38 60/9/38
f 60/9/39 51/86/39 56/87/39 61/12/39
f 54/14/40 53/88/40 58/85/40 62/8/40
f 53/89/41 54/19/41 63/18/41 55/90/41
f 52/91/42 115/22/42 114/92/42
f 58/93/43 53/94/43 55/82/43 64/81/43
f 51/86/44 64/81/44 56/87/44
f 56/87/45 64/81/45 57/84/45 50/95/45
f 68/26/46 50/95/46 67/96/46 70/97/46
f 67/96/47 50/95/47 57/98/47 65/30/47 66/29/47
f 78/99/48 73/100/48 71/33/48
f 66/29/14 69/35/14 70/97/14 67/96/14
f 73/100/49 81/101/49 76/102/49 74/36/49 71/33/49
f 69/35/50 77/39/50 78/99/50 70/97/50
f 68/103/14 71/104/14 72/105/14 77/106/14 69/40/14
f 68/26/51 56/87/51 50/95/51
f 69/40/52 66/41/52 61/12/52 56/87/52 68/26/52
f 58/93/53 64/81/53 51/86/53
f 75/42/54 79/43/54 76/102/54
f 71/104/14 74/107/14 79/108/14 75/109/14 80/110/14 72/105/14
f 70/97/55 78/99/55 71/33/55 68/26/55
f 77/39/56 72/44/56 73/100/56 78/99/56
f 79/43/57 74/36/57 76/102/57
f 80/45/58 75/42/58 76/102/58 81/101/58
f 98/111/25 100/112/25 101/113/25 99/114/25
f 100/112/14 104/115/14 105/116/14 101/113/14
f 104/115/27 102/117/27 103/118/27 105/116/27
f 102/117/26 98/119/26 99/120/26 103/118/26
f 100/121/28 98/122/28 102/117/28 104/115/28
f 105/116/29 103/118/29 99/123/29 101/124/29
f 106/125/25 108/126/25 109/127/25 107/128/25
f 108/126/14 112/129/14 113/130/14 109/127/14
f 112/129/27 110/131/27 111/132/27 113/130/27
f 110/131/26 106/133/26 107/134/26 111/132/26
f 108/135/28 106/136/28 110/131/28 112/129/28
f 113/130/29 111/132/29 107/137/29 109/138/29
f 118/74/59 117/76/59 116/139/59
f 115/22/60 118/74/60 116/139/60 114/92/60
f 59/140/14 117/141/14 118/142/14 115/143/14
f 114/80/61 116/144/61 117/77/61 59/1/61
f 65/30/62 57/98/62 52/79/62 59/1/62
f 55/90/63 115/22/63 52/91/63
f 63/18/64 115/22/64 55/90/64
usemtl Material.003
f 80/110/65 72/105/65 16/145/65 19/146/65
f 18/147/66 19/148/66 23/149/66 22/150/66
f 72/44/67 12/34/67 17/151/67 16/152/67
f 15/38/68 80/45/68 19/148/68 18/147/68
f 12/34/69 15/38/69 18/147/69 17/151/69
f 21/153/70 22/150/70 26/154/70 25/155/70
f 17/151/71 18/147/71 22/150/71 21/153/71
f 19/146/72 16/145/72 20/156/72 23/157/72
f 16/152/73 17/151/73 21/153/73 20/158/73
f 27/159/74 24/160/74 28/161/74 31/162/74
f 23/157/75 20/156/75 24/160/75 27/159/75
f 20/158/76 21/153/76 25/155/76 24/163/76
f 22/150/77 23/149/77 27/164/77 26/154/77
f 28/165/78 29/166/78 30/167/78 31/168/78
f 24/163/79 25/155/79 29/166/79 28/165/79
f 26/154/80 27/164/80 31/168/80 30/167/80
f 25/155/81 26/154/81 30/167/81 29/166/81
f 80/110/82 85/169/82 82/170/82 72/105/82
f 84/171/83 88/172/83 89/173/83 85/174/83
f 72/44/84 82/175/84 83/176/84 73/100/84
f 81/101/85 84/171/85 85/174/85 80/45/85
f 73/100/86 83/176/86 84/171/86 81/101/86
f 87/177/87 91/178/87 92/179/87 88/172/87
f 83/176/88 87/177/88 88/172/88 84/171/88
f 85/169/89 89/180/89 86/181/89 82/170/89
f 82/175/90 86/182/90 87/177/90 83/176/90
f 93/183/91 97/184/91 94/185/91 90/186/91
f 89/180/92 93/183/92 90/186/92 86/181/92
f 86/182/93 90/187/93 91/178/93 87/177/93
f 88/172/94 92/179/94 93/188/94 89/173/94
f 94/189/95 97/190/95 96/191/95 95/192/95
f 90/187/96 94/189/96 95/192/96 91/178/96
f 92/179/97 96/191/97 97/190/97 93/188/97
f 91/178/98 95/192/98 96/191/98 92/179/98
