# Blender v2.83.0 OBJ File: ''
# www.blender.org
mtllib rock.mtl
o Cube.008
v 0.489873 0.672385 -0.506674
v -0.586233 0.635931 -0.368395
v -0.554269 0.939248 0.415670
v 0.350813 0.724088 0.671313
v 0.953198 -0.000000 0.847681
v -0.961987 -0.000000 0.953198
v -0.838892 0.000000 -0.768549
v 0.742169 0.000000 -0.953198
v 0.471932 0.649436 0.132214
v -0.032619 0.824334 -0.509902
v -0.623381 0.766464 0.040208
v -0.034989 0.870508 0.716627
v -0.004395 -0.000000 0.900439
v 0.801589 0.425393 0.813670
v -0.840973 0.445115 0.803397
v -0.900439 -0.000000 0.092325
v -0.751087 0.537115 -0.593496
v -0.048362 0.000000 -0.860873
v 0.847683 0.000000 -0.052758
v 0.539176 0.291035 -0.892532
v 0.096610 0.475755 -0.854178
v 0.752361 0.406513 0.016485
v -0.026378 -0.000000 0.019783
v -0.868233 0.358204 0.289923
v -0.229060 0.533529 0.914827
v -0.288628 1.008216 0.073866
vt 0.750000 0.625000
vt 0.875000 0.750000
vt 0.750000 0.750000
vt 0.500000 0.875000
vt 0.625000 1.000000
vt 0.500000 1.000000
vt 0.500000 0.125000
vt 0.625000 0.250000
vt 0.500000 0.250000
vt 0.375000 0.625000
vt 0.250000 0.750000
vt 0.250000 0.625000
vt 0.625000 0.625000
vt 0.500000 0.750000
vt 0.500000 0.625000
vt 0.500000 0.375000
vt 0.625000 0.500000
vt 0.500000 0.500000
vt 0.375000 0.375000
vt 0.375000 0.500000
vt 0.375000 0.250000
vt 0.375000 0.750000
vt 0.125000 0.625000
vt 0.125000 0.750000
vt 0.125000 0.500000
vt 0.250000 0.500000
vt 0.375000 0.125000
vt 0.375000 0.000000
vt 0.625000 0.000000
vt 0.500000 0.000000
vt 0.375000 0.875000
vt 0.375000 1.000000
vt 0.625000 0.750000
vt 0.750000 0.500000
vt 0.875000 0.500000
vt 0.875000 0.625000
vt 0.625000 0.875000
vt 0.625000 0.125000
vt 0.625000 0.375000
vn -0.0660 0.9871 -0.1457
vn -0.2342 0.9721 0.0142
vn 0.3017 0.9519 0.0528
vn -0.0946 0.3079 0.9467
vn -0.2706 0.6531 0.7072
vn -0.1005 0.3853 0.9173
vn -0.9456 0.3183 -0.0675
vn -0.7007 0.7135 0.0008
vn -0.9046 0.4258 -0.0223
vn -0.0000 -1.0000 -0.0000
vn 0.6302 0.7764 -0.0040
vn 0.8315 0.5516 -0.0661
vn 0.8645 0.4916 -0.1048
vn -0.0574 0.4542 -0.8891
vn 0.2256 0.7161 -0.6605
vn 0.0036 0.3038 -0.9527
vn -0.1705 0.1355 -0.9760
vn -0.1151 0.1251 -0.9854
vn -0.1304 0.6195 -0.7741
vn -0.1097 0.3242 -0.9396
vn -0.1500 0.8568 -0.4934
vn 0.9387 0.3072 -0.1565
vn 0.9390 0.3259 -0.1100
vn 0.8663 0.4685 -0.1735
vn 0.8072 0.5827 -0.0946
vn 0.8568 0.4813 -0.1853
vn -0.9855 0.1470 -0.0842
vn -0.9806 0.1831 -0.0701
vn -0.9773 0.2106 -0.0244
vn -0.8741 0.4831 -0.0499
vn -0.9353 0.3537 -0.0102
vn 0.0276 0.0512 0.9983
vn 0.0524 0.3057 0.9507
vn 0.0867 0.1977 0.9764
vn 0.0547 0.0989 0.9936
vn 0.1691 0.5396 0.8248
vn 0.3792 0.9252 -0.0169
vn 0.3491 0.9357 -0.0511
vn 0.1171 0.9752 -0.1876
vn 0.2788 0.9594 0.0423
vn -0.4464 0.8096 -0.3811
vn -0.5418 0.7901 -0.2867
vn -0.0203 0.5155 0.8566
vn -0.8849 0.4432 -0.1431
vn 0.5506 0.8348 0.0081
vn -0.1552 0.6645 -0.7310
usemtl Material.012
s 1
f 26/1/1 3/2/2 12/3/3
f 25/4/4 3/5/5 15/6/6
f 24/7/7 2/8/8 17/9/9
f 19/10/10 13/11/10 23/12/10
f 9/13/11 14/14/12 22/15/13
f 21/16/14 1/17/15 20/18/16
f 18/19/17 20/18/16 8/20/18
f 17/9/19 18/19/17 7/21/20
f 2/8/21 21/16/14 17/9/19
f 19/10/22 14/14/12 5/22/23
f 20/18/24 19/10/22 8/20/25
f 1/17/26 22/15/13 20/18/24
f 16/23/10 13/11/10 6/24/10
f 7/25/10 23/12/10 16/23/10
f 18/26/10 19/10/10 23/12/10
f 16/27/27 17/9/9 7/21/28
f 6/28/29 24/7/7 16/27/27
f 3/29/30 24/7/7 15/30/31
f 13/31/32 15/6/6 6/32/33
f 14/14/34 13/31/32 5/22/35
f 4/33/36 25/4/4 14/14/34
f 9/13/37 12/3/3 4/33/38
f 10/34/39 9/13/37 1/17/40
f 2/35/41 26/1/1 10/34/39
f 26/1/1 11/36/42 3/2/2
f 25/4/4 12/37/43 3/5/5
f 24/7/7 11/38/44 2/8/8
f 19/10/10 5/22/10 13/11/10
f 9/13/11 4/33/45 14/14/12
f 21/16/14 10/39/46 1/17/15
f 18/19/17 21/16/14 20/18/16
f 17/9/19 21/16/14 18/19/17
f 2/8/21 10/39/46 21/16/14
f 19/10/22 22/15/13 14/14/12
f 20/18/24 22/15/13 19/10/22
f 1/17/26 9/13/11 22/15/13
f 16/23/10 23/12/10 13/11/10
f 7/25/10 18/26/10 23/12/10
f 18/26/10 8/20/10 19/10/10
f 16/27/27 24/7/7 17/9/9
f 6/28/29 15/30/31 24/7/7
f 3/29/30 11/38/44 24/7/7
f 13/31/32 25/4/4 15/6/6
f 14/14/34 25/4/4 13/31/32
f 4/33/36 12/37/43 25/4/4
f 9/13/37 26/1/1 12/3/3
f 10/34/39 26/1/1 9/13/37
f 2/35/41 11/36/42 26/1/1
